<?xml version="1.0" encoding="utf-8"?>
<!-- Generator: Adobe Illustrator 16.0.0, SVG Export Plug-In . SVG Version: 6.00 Build 0)  -->
<!DOCTYPE svg PUBLIC "-//W3C//DTD SVG 1.0//EN" "http://www.w3.org/TR/2001/REC-SVG-20010904/DTD/svg10.dtd">
<svg version="1.0" id="Layer_1" xmlns="http://www.w3.org/2000/svg" xmlns:xlink="http://www.w3.org/1999/xlink" x="0px" y="0px"
	 width="708.66px" height="708.66px" viewBox="0 0 708.66 708.66" enable-background="new 0 0 708.66 708.66" xml:space="preserve">
<g>
	<path fill="none" stroke="#373431" stroke-width="12" stroke-linecap="round" stroke-linejoin="round" stroke-miterlimit="10" d="
		M593.496,270.955c0,9.748-7.959,17.719-17.7,17.719H380.901c-9.74,0-17.699-7.971-17.699-17.719v-35.43
		c0-9.747,7.959-17.719,17.699-17.719h194.895c9.741,0,17.7,7.972,17.7,17.719V270.955z"/>
	<path fill="none" stroke="#373431" stroke-width="12" stroke-linecap="round" stroke-linejoin="round" stroke-miterlimit="10" d="
		M593.496,620.076v-99.217c0-7.801-6.372-14.172-14.159-14.172H465.96c-7.813,0-14.186,6.371-14.186,14.172v99.217H593.496z"/>
	<path fill="none" stroke="#373431" stroke-width="12" stroke-linecap="round" stroke-linejoin="round" stroke-miterlimit="10" d="
		M522.647,411.023c-23.486,0-42.528,19.041-42.528,42.516v53.148h21.265v-53.148c0-11.73,9.521-21.252,21.264-21.252
		c11.743,0,21.265,9.521,21.265,21.252v53.148h21.239v-53.148C565.151,430.064,546.134,411.023,522.647,411.023z"/>
	<path fill="none" stroke="#373431" stroke-width="12" stroke-linecap="round" stroke-linejoin="round" stroke-miterlimit="10" d="
		M536.807,549.203c0-7.824-6.323-14.172-14.16-14.172c-7.836,0-14.184,6.348-14.184,14.172c0,5.238,2.881,9.766,7.104,12.207v30.322
		h14.16V561.41C533.951,558.969,536.807,554.441,536.807,549.203z"/>
	<path fill="none" stroke="#373431" stroke-width="12" stroke-linecap="round" stroke-linejoin="round" stroke-miterlimit="10" d="
		M283.979,135.49h-46.898H283.979z"/>
	<path fill="none" stroke="#373431" stroke-width="12" stroke-linecap="round" stroke-linejoin="round" stroke-miterlimit="10" d="
		M323.065,135.49h-15.624H323.065z"/>
	<path fill="none" stroke="#373431" stroke-width="12" stroke-linecap="round" stroke-linejoin="round" stroke-miterlimit="10" d="
		M280.073,581.002c0,10.768-8.764,19.543-19.531,19.543c-10.79,0-19.555-8.775-19.555-19.543c0-10.791,8.765-19.555,19.555-19.555
		C271.309,561.447,280.073,570.211,280.073,581.002z"/>
	
		<rect x="323.065" y="88.591" fill="none" stroke="#373431" stroke-width="12" stroke-linecap="round" stroke-linejoin="round" stroke-miterlimit="10" width="46.899" height="15.625"/>
	
		<rect x="88.573" y="182.388" fill="none" stroke="#373431" stroke-width="12" stroke-linecap="round" stroke-linejoin="round" stroke-miterlimit="10" width="15.625" height="46.898"/>
	
		<rect x="88.573" y="252.736" fill="none" stroke="#373431" stroke-width="12" stroke-linecap="round" stroke-linejoin="round" stroke-miterlimit="10" width="15.625" height="46.887"/>
	<path fill="none" stroke="#373431" stroke-width="12" stroke-linecap="round" stroke-linejoin="round" stroke-miterlimit="10" d="
		M205.807,510.643c0,4.309-3.516,7.824-7.813,7.824h-39.086c-4.297,0-7.813-3.516-7.813-7.824v-39.074
		c0-4.297,3.516-7.813,7.813-7.813h39.086c4.297,0,7.813,3.516,7.813,7.813V510.643z"/>
	<path fill="none" stroke="#373431" stroke-width="12" stroke-linecap="round" stroke-linejoin="round" stroke-miterlimit="10" d="
		M287.885,510.643c0,4.309-3.516,7.824-7.813,7.824h-39.086c-4.297,0-7.813-3.516-7.813-7.824v-39.074
		c0-4.297,3.516-7.813,7.813-7.813h39.086c4.297,0,7.813,3.516,7.813,7.813V510.643z"/>
	<path fill="none" stroke="#373431" stroke-width="12" stroke-linecap="round" stroke-linejoin="round" stroke-miterlimit="10" d="
		M398.626,235.531v35.424V235.531z"/>
	<path fill="none" stroke="#373431" stroke-width="12" stroke-linecap="round" stroke-linejoin="round" stroke-miterlimit="10" d="
		M383.27,262.105l30.688-17.725L383.27,262.105z"/>
	<path fill="none" stroke="#373431" stroke-width="12" stroke-linecap="round" stroke-linejoin="round" stroke-miterlimit="10" d="
		M413.958,262.105L383.27,244.38L413.958,262.105z"/>
	<path fill="none" stroke="#373431" stroke-width="12" stroke-linecap="round" stroke-linejoin="round" stroke-miterlimit="10" d="
		M451.774,235.531v35.424V235.531z"/>
	<path fill="none" stroke="#373431" stroke-width="12" stroke-linecap="round" stroke-linejoin="round" stroke-miterlimit="10" d="
		M436.419,262.105l30.688-17.725L436.419,262.105z"/>
	<path fill="none" stroke="#373431" stroke-width="12" stroke-linecap="round" stroke-linejoin="round" stroke-miterlimit="10" d="
		M467.106,262.105l-30.688-17.725L467.106,262.105z"/>
	<path fill="none" stroke="#373431" stroke-width="12" stroke-linecap="round" stroke-linejoin="round" stroke-miterlimit="10" d="
		M504.923,235.531v35.424V235.531z"/>
	<path fill="none" stroke="#373431" stroke-width="12" stroke-linecap="round" stroke-linejoin="round" stroke-miterlimit="10" d="
		M489.567,262.105l30.688-17.725L489.567,262.105z"/>
	<path fill="none" stroke="#373431" stroke-width="12" stroke-linecap="round" stroke-linejoin="round" stroke-miterlimit="10" d="
		M520.255,262.105l-30.688-17.725L520.255,262.105z"/>
	<path fill="none" stroke="#373431" stroke-width="12" stroke-linecap="round" stroke-linejoin="round" stroke-miterlimit="10" d="
		M558.071,235.531v35.424V235.531z"/>
	<path fill="none" stroke="#373431" stroke-width="12" stroke-linecap="round" stroke-linejoin="round" stroke-miterlimit="10" d="
		M542.716,262.105l30.688-17.725L542.716,262.105z"/>
	<path fill="none" stroke="#373431" stroke-width="12" stroke-linecap="round" stroke-linejoin="round" stroke-miterlimit="10" d="
		M573.403,262.105l-30.688-17.725L573.403,262.105z"/>
	<path fill="none" stroke="#373431" stroke-width="12" stroke-linecap="round" stroke-linejoin="round" stroke-miterlimit="10" d="
		M593.496,368.396c0,9.746-7.959,17.719-17.7,17.719H380.901c-9.74,0-17.699-7.973-17.699-17.719v-35.43
		c0-9.748,7.959-17.719,17.699-17.719h194.895c9.741,0,17.7,7.971,17.7,17.719V368.396z"/>
	<path fill="none" stroke="#373431" stroke-width="12" stroke-linecap="round" stroke-linejoin="round" stroke-miterlimit="10" d="
		M398.626,332.972v35.424V332.972z"/>
	<path fill="none" stroke="#373431" stroke-width="12" stroke-linecap="round" stroke-linejoin="round" stroke-miterlimit="10" d="
		M383.27,359.547l30.688-17.725L383.27,359.547z"/>
	<path fill="none" stroke="#373431" stroke-width="12" stroke-linecap="round" stroke-linejoin="round" stroke-miterlimit="10" d="
		M413.958,359.547l-30.688-17.725L413.958,359.547z"/>
	<path fill="none" stroke="#373431" stroke-width="12" stroke-linecap="round" stroke-linejoin="round" stroke-miterlimit="10" d="
		M451.774,332.972v35.424V332.972z"/>
	<path fill="none" stroke="#373431" stroke-width="12" stroke-linecap="round" stroke-linejoin="round" stroke-miterlimit="10" d="
		M436.419,359.547l30.688-17.725L436.419,359.547z"/>
	<path fill="none" stroke="#373431" stroke-width="12" stroke-linecap="round" stroke-linejoin="round" stroke-miterlimit="10" d="
		M467.106,359.547l-30.688-17.725L467.106,359.547z"/>
	<path fill="none" stroke="#373431" stroke-width="12" stroke-linecap="round" stroke-linejoin="round" stroke-miterlimit="10" d="
		M504.923,332.972v35.424V332.972z"/>
	<path fill="none" stroke="#373431" stroke-width="12" stroke-linecap="round" stroke-linejoin="round" stroke-miterlimit="10" d="
		M489.567,359.547l30.688-17.725L489.567,359.547z"/>
	<path fill="none" stroke="#373431" stroke-width="12" stroke-linecap="round" stroke-linejoin="round" stroke-miterlimit="10" d="
		M520.255,359.547l-30.688-17.725L520.255,359.547z"/>
	<path fill="none" stroke="#373431" stroke-width="12" stroke-linecap="round" stroke-linejoin="round" stroke-miterlimit="10" d="
		M346.552,463.756h-23.486c-4.296,0-7.836,3.516-7.836,7.813v39.074c0,4.309,3.54,7.824,7.836,7.824h39.087
		c4.321,0,7.813-3.516,7.813-7.824v-36.193C360.76,473.9,352.533,469.969,346.552,463.756z"/>
	<path fill="none" stroke="#373431" stroke-width="12" stroke-linecap="round" stroke-linejoin="round" stroke-miterlimit="10" d="
		M372.04,474.656c-19.58,0-35.424-15.844-35.424-35.393v-88.585l-35.425-35.431l35.425-35.43v-53.149
		c0-19.573,15.868-35.437,35.424-35.437h44.823v-40.105v-0.012c0-25.903-21.021-46.898-46.898-46.898H151.096
		c-25.903,0-46.898,21.008-46.898,46.898v0.012v422.051c0,25.902,21.02,46.898,46.898,46.898h218.868
		c25.878,0,46.898-20.996,46.898-46.898v-98.51L372.04,474.656z"/>
	<path fill="none" stroke="#373431" stroke-width="12" stroke-linecap="round" stroke-linejoin="round" stroke-miterlimit="10" d="
		M372.04,474.656c-19.58,0-35.424-15.844-35.424-35.393v-88.585l-35.425-35.431l35.425-35.43v-53.149
		c0-19.573,15.868-35.437,35.424-35.437h21.361v-24.469H127.659v375.165h265.742v-67.271H372.04z"/>
	<path fill="none" stroke="#373431" stroke-width="12" stroke-linecap="round" stroke-linejoin="round" stroke-miterlimit="10" d="
		M522.647,432.287c-11.742,0-21.264,9.521-21.264,21.252v21.143h42.528v-21.143C543.912,441.809,534.39,432.287,522.647,432.287z"/>
	<path fill="none" stroke="#373431" stroke-width="12" stroke-linecap="round" stroke-linejoin="round" stroke-miterlimit="10" d="
		M584.634,191.239l-212.594-0.007c-19.556,0-35.424,15.863-35.424,35.437v53.149l-35.425,35.43l35.425,35.431v88.585
		c0,19.549,15.844,35.393,35.424,35.393l108.079,0.025v-21.143c0-23.475,19.042-42.516,42.528-42.516s42.504,19.041,42.504,42.516
		v21.154h19.482c19.556,0,35.424-15.857,35.424-35.43l0.025-212.601C620.083,207.107,604.214,191.239,584.634,191.239z"/>
	
		<rect x="363.202" y="412.689" fill="none" stroke="#373431" stroke-width="12" stroke-linecap="round" stroke-linejoin="round" stroke-miterlimit="10" width="88.572" height="26.574"/>
</g>
</svg>
