<?xml version="1.0" encoding="utf-8"?>
<!-- Generator: Adobe Illustrator 16.0.0, SVG Export Plug-In . SVG Version: 6.00 Build 0)  -->
<!DOCTYPE svg PUBLIC "-//W3C//DTD SVG 1.0//EN" "http://www.w3.org/TR/2001/REC-SVG-20010904/DTD/svg10.dtd">
<svg version="1.0" id="Layer_1" xmlns="http://www.w3.org/2000/svg" xmlns:xlink="http://www.w3.org/1999/xlink" x="0px" y="0px"
	 width="708.66px" height="708.66px" viewBox="0 0 708.66 708.66" enable-background="new 0 0 708.66 708.66" xml:space="preserve">
<g>
	<path fill="none" stroke="#373431" stroke-width="12" stroke-linecap="round" stroke-linejoin="round" stroke-miterlimit="10" d="
		M230.32,521.15l70.861,5.908L230.32,521.15z"/>
	<path fill="none" stroke="#373431" stroke-width="12" stroke-linecap="round" stroke-linejoin="round" stroke-miterlimit="10" d="
		M230.32,521.15l-35.436-2.953c-19.494,0-35.438-15.943-35.438-35.438V376.469c0-19.488,15.943-35.431,35.438-35.431h35.436v-93.005
		c0,29.357,71.387,53.148,159.436,53.148c88.061,0,159.459-23.791,159.459-53.148v318.881c0,29.357-71.398,70.873-159.459,70.873
		c-88.049,0-159.436-41.516-159.436-70.873V521.15z"/>
	<path fill="none" stroke="#373431" stroke-width="12" stroke-linecap="round" stroke-linejoin="round" stroke-miterlimit="10" d="
		M301.181,341.038H230.32H301.181z"/>
	<path fill="none" stroke="#373431" stroke-width="12" stroke-linecap="round" stroke-linejoin="round" stroke-miterlimit="10" d="
		M230.32,376.469h70.861H230.32z"/>
	<path fill="none" stroke="#373431" stroke-width="12" stroke-linecap="round" stroke-linejoin="round" stroke-miterlimit="10" d="
		M230.32,485.189l-26.586-2.418c-4.871,0-8.85-3.99-8.85-8.861v-88.586c0-4.871,3.979-8.855,8.85-8.855h26.586V485.189z"/>
	<path fill="none" stroke="#373431" stroke-width="12" stroke-linecap="round" stroke-linejoin="round" stroke-miterlimit="10" d="
		M301.181,491.623l-70.861-6.434L301.181,491.623z"/>
	<path fill="none" stroke="#373431" stroke-width="12" stroke-linecap="round" stroke-linejoin="round" stroke-miterlimit="10" d="
		M242.222,70.886L242.222,70.886c-3.148,7.605-2.918,15.795,0.012,22.864c2.93,7.067,8.545,13.037,16.188,16.174l2.416,1.025
		c10.871,4.517,20.045,13.159,24.902,24.891l0,0v0.012c9.742,23.462-1.416,50.378-24.891,60.095l-0.012,0.013
		c-23.461,9.716-50.377-1.429-60.107-24.902c-8.092-19.556-7.494-40.552,0.014-58.68c7.506-18.139,21.936-33.41,41.504-41.503l0,0
		L242.222,70.886z"/>
	<path fill="none" stroke="#373431" stroke-width="12" stroke-linecap="round" stroke-linejoin="round" stroke-miterlimit="10" d="
		M260.849,195.946c16.029-6.628,23.658-25.024,17.006-41.076c-3.32-8.008-9.596-13.953-17.006-17.017
		c7.41,3.063,13.686,9.009,17.006,17.017C284.508,170.921,276.879,189.318,260.849,195.946z"/>
	<path fill="none" stroke="#373431" stroke-width="12" stroke-linecap="round" stroke-linejoin="round" stroke-miterlimit="10" d="
		M222.838,174.339c-6.066-14.673-5.627-30.42,0.012-44.018c4.799-11.585,13.379-21.558,24.879-28.027
		c-11.5,6.47-20.08,16.442-24.879,28.027C217.211,143.919,216.771,159.667,222.838,174.339z"/>
	<path fill="none" stroke="#373431" stroke-width="12" stroke-linecap="round" stroke-linejoin="round" stroke-miterlimit="10" d="
		M424.094,272.398h-21.582H424.094z"/>
	<path fill="none" stroke="#373431" stroke-width="12" stroke-linecap="round" stroke-linejoin="round" stroke-miterlimit="10" d="
		M424.094,243.601h-35.998H424.094z"/>
	<path fill="none" stroke="#373431" stroke-width="12" stroke-linecap="round" stroke-linejoin="round" stroke-miterlimit="10" d="
		M424.094,157.238h-35.998H424.094z"/>
	<path fill="none" stroke="#373431" stroke-width="12" stroke-linecap="round" stroke-linejoin="round" stroke-miterlimit="10" d="
		M424.094,214.818h-21.582H424.094z"/>
	<path fill="none" stroke="#373431" stroke-width="12" stroke-linecap="round" stroke-linejoin="round" stroke-miterlimit="10" d="
		M424.094,186.034h-21.582H424.094z"/>
	<path fill="none" stroke="#373431" stroke-width="12" stroke-linecap="round" stroke-linejoin="round" stroke-miterlimit="10" d="
		M389.756,301.181c11.805,0,23.266-0.451,34.338-1.27V70.874H337.73v227.354C354.051,300.107,371.506,301.181,389.756,301.181z
		 M380.906,99.658c7.945,0,14.391,6.445,14.391,14.404c0,7.946-6.445,14.392-14.391,14.392c-7.947,0-14.393-6.445-14.393-14.392
		C366.513,106.103,372.959,99.658,380.906,99.658z"/>
	<path fill="none" stroke="#373431" stroke-width="12" stroke-linecap="round" stroke-linejoin="round" stroke-miterlimit="10" d="
		M466.342,201.488c-13.098-2.393-27.246-4.236-42.248-5.334v103.758c0.525-0.036,1.025-0.098,1.539-0.134L466.342,201.488z"/>
	<path fill="none" stroke="#373431" stroke-width="12" stroke-linecap="round" stroke-linejoin="round" stroke-miterlimit="10" d="
		M517.709,216.405l-30.506,73.632c37.684-9.717,62.012-24.89,62.012-42.004C549.215,236.167,537.435,225.243,517.709,216.405z"/>
	<path fill="none" stroke="#373431" stroke-width="12" stroke-linecap="round" stroke-linejoin="round" stroke-miterlimit="10" d="
		M503.463,181.346l-47.625,114.978c-9.613,1.465-19.678,2.654-30.205,3.467l53.264-128.612h0.006
		c2.809-6.775,10.584-10.01,17.359-7.19C503.023,166.795,506.258,174.583,503.463,181.346z"/>
	<path fill="none" stroke="#373431" stroke-width="12" stroke-linecap="round" stroke-linejoin="round" stroke-miterlimit="10" d="
		M503.463,181.346l-47.625,114.978c11.188-1.709,21.74-3.797,31.365-6.287l40.814-98.516l-0.006-0.006
		c2.795-6.764-0.428-14.551-7.189-17.359C514.021,171.349,506.258,174.583,503.463,181.346z"/>
	<path fill="none" stroke="#373431" stroke-width="12" stroke-linecap="round" stroke-linejoin="round" stroke-miterlimit="10" d="
		M503.463,181.346c2.795-6.763-0.439-14.551-7.201-17.358c-6.775-2.819-14.551,0.415-17.359,7.19h-0.006l5.084-12.269l65.234-88.036
		l-16.113,108.373l-5.084,12.274l-0.006-0.006c2.795-6.764-0.428-14.551-7.189-17.359
		C514.021,171.349,506.258,174.583,503.463,181.346z"/>
	<path fill="none" stroke="#373431" stroke-width="12" stroke-linecap="round" stroke-linejoin="round" stroke-miterlimit="10" d="
		M487.203,290.037l45.898-110.79l16.113-108.373L483.98,158.91l-58.348,140.881C448.422,298.033,469.308,294.664,487.203,290.037z"
		/>
	<path fill="none" stroke="#373431" stroke-width="12" stroke-linecap="round" stroke-linejoin="round" stroke-miterlimit="10" d="
		M324.607,296.482c4.285,0.635,8.643,1.232,13.123,1.746V197.837c-18.482,2.137-35.363,5.384-50.061,9.461L324.607,296.482z"/>
	<path fill="none" stroke="#373431" stroke-width="12" stroke-linecap="round" stroke-linejoin="round" stroke-miterlimit="10" d="
		M249.779,222.679c-12.354,7.531-19.459,16.162-19.459,25.354c0,14.429,17.297,27.478,45.301,37.048L249.779,222.679z"/>
	<path fill="none" stroke="#373431" stroke-width="12" stroke-linecap="round" stroke-linejoin="round" stroke-miterlimit="10" d="
		M257.597,241.569l-17.498-42.254c6.871,0.464,13.951-0.55,20.738-3.356l0.012-0.013c6.787-2.808,12.514-7.08,17.041-12.269
		l17.5,42.236L257.597,241.569z"/>
	<path fill="none" stroke="#373431" stroke-width="12" stroke-linecap="round" stroke-linejoin="round" stroke-miterlimit="10" d="
		M324.631,296.519l-46.74-112.842c-4.527,5.188-10.254,9.461-17.041,12.269l-0.012,0.013c-6.787,2.807-13.867,3.82-20.738,3.356
		l35.533,85.79C289.574,289.878,306.176,293.748,324.631,296.519z"/>
</g>
</svg>
