<?xml version="1.0" encoding="utf-8"?>
<!-- Generator: Adobe Illustrator 16.0.0, SVG Export Plug-In . SVG Version: 6.00 Build 0)  -->
<!DOCTYPE svg PUBLIC "-//W3C//DTD SVG 1.0//EN" "http://www.w3.org/TR/2001/REC-SVG-20010904/DTD/svg10.dtd">
<svg version="1.0" id="Layer_1" xmlns="http://www.w3.org/2000/svg" xmlns:xlink="http://www.w3.org/1999/xlink" x="0px" y="0px"
	 width="708.66px" height="708.66px" viewBox="0 0 708.66 708.66" enable-background="new 0 0 708.66 708.66" xml:space="preserve">
<g>
	<path fill="none" stroke="#373431" stroke-width="12" stroke-linecap="round" stroke-linejoin="round" stroke-miterlimit="10" d="
		M519.693,413.574v188.791V413.574z"/>
	<path fill="none" stroke="#373431" stroke-width="12" stroke-linecap="round" stroke-linejoin="round" stroke-miterlimit="10" d="
		M561.025,516.916v85.449V516.916z"/>
	<path fill="none" stroke="#373431" stroke-width="12" stroke-linecap="round" stroke-linejoin="round" stroke-miterlimit="10" d="
		M561.025,386.951v-32.618c0-57.072-23.119-108.738-60.496-146.134c-26.27-26.245-59.619-45.238-96.85-54.369
		c37.23,9.131,70.58,28.124,96.85,54.369c37.377,37.396,60.496,89.062,60.496,146.134V386.951z"/>
	<path fill="none" stroke="#373431" stroke-width="12" stroke-linecap="round" stroke-linejoin="round" stroke-miterlimit="10" d="
		M313.032,354.333c0-22.845,18.481-41.356,41.308-41.356v0.03c22.852,0,41.357,18.494,41.357,41.314l-0.025,0.006
		c0,22.846-18.506,41.358-41.308,41.358c22.802,0,41.308-18.512,41.308-41.358l0.025-0.006c0-22.82-18.506-41.314-41.357-41.314
		v-0.03C331.513,312.977,313.032,331.489,313.032,354.333z"/>
	<path fill="none" stroke="#373431" stroke-width="12" stroke-linecap="round" stroke-linejoin="round" stroke-miterlimit="10" d="
		M602.358,602.365V434.252c0-11.426-9.229-20.678-20.653-20.678c-11.426,0-20.68,9.252-20.68,20.678v44.104v-44.104
		c0-11.426,9.254-20.678,20.68-20.678c11.425,0,20.653,9.252,20.653,20.678V602.365z"/>
	<path fill="none" stroke="#373431" stroke-width="12" stroke-linecap="round" stroke-linejoin="round" stroke-miterlimit="10" d="
		M153.269,602.365c-18.213-22.326-33.96-46.668-46.947-72.68C119.309,555.697,135.056,580.039,153.269,602.365z"/>
	<path fill="none" stroke="#373431" stroke-width="12" stroke-linecap="round" stroke-linejoin="round" stroke-miterlimit="10" d="
		M154.734,532.297c15.087,25.623,33.349,49.145,54.197,70.068C188.083,581.441,169.821,557.92,154.734,532.297z"/>
	<path fill="none" stroke="#373431" stroke-width="12" stroke-linecap="round" stroke-linejoin="round" stroke-miterlimit="10" d="
		M191.965,513.449c20.752,34.596,48.07,64.77,80.174,88.916C240.035,578.219,212.717,548.045,191.965,513.449z"/>
	<path fill="none" stroke="#373431" stroke-width="12" stroke-linecap="round" stroke-linejoin="round" stroke-miterlimit="10" d="
		M478.361,513.73v-50.279c-2.319,2.637-4.614,5.311-7.08,7.813c-15.234,15.221-33.496,27.367-53.71,35.74
		c20.214-8.373,38.476-20.52,53.71-35.74c2.466-2.502,4.761-5.176,7.08-7.813V513.73z"/>
	<path fill="none" stroke="#373431" stroke-width="12" stroke-linecap="round" stroke-linejoin="round" stroke-miterlimit="10" d="
		M400.238,285.634c-13.135-8.771-28.906-13.904-45.898-13.904v-0.055c-22.826,0-43.505,9.253-58.446,24.206
		c-14.989,14.966-24.218,35.638-24.218,58.452c0,22.833,9.229,43.5,24.193,58.465c11.353,11.346,26,19.385,42.357,22.625
		c-16.357-3.24-31.005-11.279-42.357-22.625c-14.965-14.965-24.193-35.633-24.193-58.465c0-22.814,9.229-43.486,24.218-58.452
		c14.941-14.953,35.62-24.206,58.446-24.206v0.055C371.332,271.73,387.103,276.863,400.238,285.634z"/>
	<path fill="none" stroke="#373431" stroke-width="12" stroke-linecap="round" stroke-linejoin="round" stroke-miterlimit="10" d="
		M370.477,435.43c16.333-3.266,30.907-11.371,42.211-22.717l0.098,0.074c8.057-8.063,21.143-8.063,29.224,0.018
		c8.08,8.063,8.08,21.154,0,29.223h0.023c-22.436,22.438-53.441,36.316-87.693,36.316c-34.229,0.012-65.258-13.879-87.693-36.322
		c-17.017-17.016-29.053-38.957-33.911-63.5c4.858,24.543,16.895,46.484,33.911,63.5c22.436,22.443,53.465,36.334,87.693,36.322
		c34.252,0,65.258-13.879,87.693-36.316h-0.023c8.08-8.068,8.08-21.16,0-29.223c-8.081-8.08-21.167-8.08-29.224-0.018l-0.098-0.074
		C401.385,424.059,386.81,432.164,370.477,435.43z"/>
	<path fill="none" stroke="#373431" stroke-width="12" stroke-linecap="round" stroke-linejoin="round" stroke-miterlimit="10" d="
		M478.361,354.333c0-34.24-13.892-65.245-36.303-87.676c-17.041-17.027-38.965-29.076-63.525-33.935
		c24.561,4.858,46.484,16.907,63.525,33.935C464.469,289.088,478.361,320.093,478.361,354.333z"/>
	<path fill="none" stroke="#373431" stroke-width="12" stroke-linecap="round" stroke-linejoin="round" stroke-miterlimit="10" d="
		M232.711,330.134c4.883-24.523,16.919-46.466,33.936-63.488c17.016-17.016,38.988-29.064,63.523-33.923
		c-24.535,4.858-46.508,16.907-63.523,33.923C249.63,283.668,237.594,305.611,232.711,330.134z"/>
	<path fill="none" stroke="#373431" stroke-width="12" stroke-linecap="round" stroke-linejoin="round" stroke-miterlimit="10" d="
		M370.966,518.834c25.878,13.695,55.395,21.531,86.718,21.531c11.4,0.014,20.653,9.277,20.653,20.691
		c0,11.4-9.253,20.666-20.653,20.666c-37.231,0-72.289-9.143-103.344-25.035c31.055,15.893,66.112,25.035,103.344,25.035
		c11.4,0,20.653-9.266,20.653-20.666c0-11.414-9.253-20.678-20.653-20.691C426.36,540.365,396.844,532.529,370.966,518.834z"/>
	<path fill="none" stroke="#373431" stroke-width="12" stroke-linecap="round" stroke-linejoin="round" stroke-miterlimit="10" d="
		M272.506,485.85c7.396,10.389,15.404,20.275,24.413,29.248c6.763,6.775,14.111,12.965,21.704,18.848
		c-7.593-5.883-14.941-12.072-21.704-18.848C287.91,506.125,279.902,496.238,272.506,485.85z"/>
	<path fill="none" stroke="#373431" stroke-width="12" stroke-linecap="round" stroke-linejoin="round" stroke-miterlimit="10" d="
		M237.423,237.417c-29.931,29.938-48.437,71.271-48.437,116.917c0,22.479,3.076,44.196,8.275,65.063
		c-5.199-20.867-8.275-42.584-8.275-65.063C188.986,308.687,207.492,267.354,237.423,237.417z"/>
	<path fill="none" stroke="#373431" stroke-width="12" stroke-linecap="round" stroke-linejoin="round" stroke-miterlimit="10" d="
		M354.291,602.365c-32.617-13.623-62.011-33.436-86.619-58.057c-25.928-25.928-46.338-57.25-59.984-91.979
		c13.646,34.729,34.057,66.051,59.984,91.979C292.28,568.93,321.674,588.742,354.291,602.365z"/>
	<path fill="none" stroke="#373431" stroke-width="12" stroke-linecap="round" stroke-linejoin="round" stroke-miterlimit="10" d="
		M423.089,308.417c8.789,13.135,13.915,28.912,13.915,45.904c0,22.844,18.506,41.356,41.333,41.356
		c22.851,0,41.356-18.512,41.356-41.344c0-22.424-4.516-43.779-12.598-63.273c8.082,19.494,12.598,40.85,12.598,63.273
		c0,22.833-18.506,41.344-41.356,41.344c-22.827,0-41.333-18.512-41.333-41.356C437.004,337.33,431.878,321.552,423.089,308.417z"/>
	<path fill="none" stroke="#373431" stroke-width="12" stroke-linecap="round" stroke-linejoin="round" stroke-miterlimit="10" d="
		M398.357,195.102c27.954,7.708,53.002,22.399,72.924,42.321c7.642,7.647,14.502,16.039,20.532,25.055
		c-6.03-9.016-12.891-17.407-20.532-25.055C451.359,217.501,426.311,202.81,398.357,195.102z"/>
	<path fill="none" stroke="#373431" stroke-width="12" stroke-linecap="round" stroke-linejoin="round" stroke-miterlimit="10" d="
		M147.654,354.333c0-57.055,23.119-108.72,60.545-146.14c37.402-37.396,89.062-60.521,146.141-60.521
		c11.401,0,20.679,9.259,20.679,20.679c0,11.413-9.277,20.666-20.679,20.666c-22.412-0.019-43.773,4.485-63.256,12.572
		c19.482-8.087,40.844-12.591,63.256-12.572c11.401,0,20.679-9.253,20.679-20.666c0-11.42-9.277-20.679-20.679-20.679
		c-57.079,0-108.738,23.126-146.141,60.521C170.773,245.614,147.654,297.279,147.654,354.333z"/>
	<path fill="none" stroke="#373431" stroke-width="12" stroke-linecap="round" stroke-linejoin="round" stroke-miterlimit="10" d="
		M148.142,216.549c-26.416,39.409-41.82,86.784-41.82,137.784c0,47.643,9.569,93.01,26.781,134.422l-0.049,0.023
		c4.37,10.535,16.455,15.539,27.002,11.195c10.546-4.383,15.551-16.469,11.181-27.002l0.317-0.135
		c-10.254-24.549-17.211-50.744-20.873-77.996c3.662,27.252,10.619,53.447,20.873,77.996l-0.317,0.135
		c4.37,10.533-0.635,22.619-11.181,27.002c-10.547,4.344-22.632-0.66-27.002-11.195l0.049-0.023
		c-17.212-41.412-26.781-86.779-26.781-134.422C106.322,303.333,121.726,255.958,148.142,216.549z"/>
	<path fill="none" stroke="#373431" stroke-width="12" stroke-linecap="round" stroke-linejoin="round" stroke-miterlimit="10" d="
		M560.562,216.549c-44.506-66.454-120.213-110.24-206.223-110.24c-68.48,0-130.49,27.753-175.363,72.644
		c44.873-44.891,106.883-72.644,175.363-72.644C440.349,106.309,516.056,150.095,560.562,216.549z"/>
	<path fill="none" stroke="#373431" stroke-width="12" stroke-linecap="round" stroke-linejoin="round" stroke-miterlimit="10" d="
		M602.358,386.926v-32.592c0-33.636-6.763-65.666-18.896-94.908c12.134,29.242,18.896,61.272,18.896,94.908V386.926z"/>
</g>
</svg>
