<?xml version="1.0" encoding="utf-8"?>
<!-- Generator: Adobe Illustrator 16.0.0, SVG Export Plug-In . SVG Version: 6.00 Build 0)  -->
<!DOCTYPE svg PUBLIC "-//W3C//DTD SVG 1.0//EN" "http://www.w3.org/TR/2001/REC-SVG-20010904/DTD/svg10.dtd">
<svg version="1.0" id="Layer_1" xmlns="http://www.w3.org/2000/svg" xmlns:xlink="http://www.w3.org/1999/xlink" x="0px" y="0px"
	 width="708.66px" height="708.66px" viewBox="0 0 708.66 708.66" enable-background="new 0 0 708.66 708.66" xml:space="preserve">
<g>
	<path fill="none" stroke="#373431" stroke-width="12" stroke-linecap="round" stroke-linejoin="round" stroke-miterlimit="10" d="
		M389.776,106.303h-53.161H389.776z"/>
	<path fill="none" stroke="#373431" stroke-width="12" stroke-linecap="round" stroke-linejoin="round" stroke-miterlimit="10" d="
		M434.062,106.303H416.35H434.062z"/>
	<path fill="none" stroke="#373431" stroke-width="12" stroke-linecap="round" stroke-linejoin="round" stroke-miterlimit="10" d="
		M385.333,611.227c0,12.207-9.911,22.156-22.131,22.156c-12.231,0-22.155-9.949-22.155-22.156c0-12.23,9.924-22.168,22.155-22.168
		C375.422,589.059,385.333,598.996,385.333,611.227z"/>
	
		<rect x="434.051" y="53.154" fill="none" stroke="#373431" stroke-width="12" stroke-linecap="round" stroke-linejoin="round" stroke-miterlimit="10" width="53.137" height="17.713"/>
	
		<rect x="168.308" y="159.464" fill="none" stroke="#373431" stroke-width="12" stroke-linecap="round" stroke-linejoin="round" stroke-miterlimit="10" width="17.711" height="53.148"/>
	
		<rect x="168.308" y="239.187" fill="none" stroke="#373431" stroke-width="12" stroke-linecap="round" stroke-linejoin="round" stroke-miterlimit="10" width="17.711" height="53.136"/>
	<path fill="none" stroke="#373431" stroke-width="12" stroke-linecap="round" stroke-linejoin="round" stroke-miterlimit="10" d="
		M540.347,124.027v-0.012c0-29.357-23.803-53.148-53.16-53.148h-248.02c-29.357,0-53.148,23.803-53.148,53.148v0.012v478.325
		c0,29.371,23.816,53.162,53.148,53.162h248.02c29.357,0,53.16-23.791,53.16-53.162V124.027z"/>
	
		<rect x="212.606" y="141.751" fill="none" stroke="#373431" stroke-width="12" stroke-linecap="round" stroke-linejoin="round" stroke-miterlimit="10" width="301.155" height="425.202"/>
	<path fill="none" stroke="#373431" stroke-width="12" stroke-linecap="round" stroke-linejoin="round" stroke-miterlimit="10" d="
		M445.867,383.947v94.396V383.947z"/>
	<path fill="none" stroke="#373431" stroke-width="12" stroke-linecap="round" stroke-linejoin="round" stroke-miterlimit="10" d="
		M466.545,435.631v42.713V435.631z"/>
	<path fill="none" stroke="#373431" stroke-width="12" stroke-linecap="round" stroke-linejoin="round" stroke-miterlimit="10" d="
		M466.545,370.643v-16.309c0-28.539-11.572-54.369-30.272-73.07c-13.122-13.109-29.797-22.619-48.413-27.184
		c18.616,4.564,35.291,14.074,48.413,27.184c18.7,18.701,30.272,44.531,30.272,73.07V370.643z"/>
	<path fill="none" stroke="#373431" stroke-width="12" stroke-linecap="round" stroke-linejoin="round" stroke-miterlimit="10" d="
		M342.523,354.333c0-11.426,9.253-20.678,20.666-20.678v0.012c11.426,0,20.679,9.253,20.679,20.666h-0.012
		c0,11.426-9.241,20.678-20.667,20.678c11.426,0,20.667-9.252,20.667-20.678h0.012c0-11.413-9.253-20.666-20.679-20.666v-0.012
		C351.776,333.656,342.523,342.908,342.523,354.333z"/>
	<path fill="none" stroke="#373431" stroke-width="12" stroke-linecap="round" stroke-linejoin="round" stroke-miterlimit="10" d="
		M487.199,478.344v-84.045c0-5.713-4.627-10.352-10.314-10.352c-5.713,0-10.34,4.639-10.34,10.352v22.045v-22.045
		c0-5.713,4.627-10.352,10.34-10.352c5.688,0,10.314,4.639,10.314,10.352V478.344z"/>
	<path fill="none" stroke="#373431" stroke-width="12" stroke-linecap="round" stroke-linejoin="round" stroke-miterlimit="10" d="
		M262.642,478.344c-9.094-11.146-16.98-23.328-23.475-36.34C245.662,455.016,253.549,467.197,262.642,478.344z"/>
	<path fill="none" stroke="#373431" stroke-width="12" stroke-linecap="round" stroke-linejoin="round" stroke-miterlimit="10" d="
		M263.386,443.322c7.531,12.805,16.662,24.572,27.1,35.021C280.049,467.895,270.918,456.127,263.386,443.322z"/>
	<path fill="none" stroke="#373431" stroke-width="12" stroke-linecap="round" stroke-linejoin="round" stroke-miterlimit="10" d="
		M282.002,433.898c10.376,17.297,24.035,32.385,40.088,44.445C306.037,466.283,292.378,451.195,282.002,433.898z"/>
	<path fill="none" stroke="#373431" stroke-width="12" stroke-linecap="round" stroke-linejoin="round" stroke-miterlimit="10" d="
		M425.201,434.045v-25.146c-1.16,1.318-2.295,2.648-3.553,3.895c-7.604,7.617-16.735,13.684-26.843,17.883
		c10.107-4.199,19.238-10.266,26.843-17.883c1.258-1.246,2.393-2.576,3.553-3.895V434.045z"/>
	<path fill="none" stroke="#373431" stroke-width="12" stroke-linecap="round" stroke-linejoin="round" stroke-miterlimit="10" d="
		M386.151,319.984c-6.567-4.395-14.453-6.958-22.962-6.958v-0.024c-11.413,0-21.752,4.639-29.234,12.109
		c-7.483,7.471-12.109,17.822-12.109,29.223c0,11.415,4.626,21.752,12.109,29.223c5.664,5.689,13,9.693,21.166,11.328
		c-8.166-1.635-15.502-5.639-21.166-11.328c-7.483-7.471-12.109-17.809-12.109-29.223c0-11.4,4.626-21.752,12.109-29.223
		c7.482-7.471,17.821-12.109,29.234-12.109v0.024C371.698,313.026,379.584,315.589,386.151,319.984z"/>
	<path fill="none" stroke="#373431" stroke-width="12" stroke-linecap="round" stroke-linejoin="round" stroke-miterlimit="10" d="
		M371.259,394.885c8.166-1.635,15.441-5.688,21.118-11.365l0.036,0.037c4.028-4.027,10.571-4.027,14.612,0.012
		c4.027,4.041,4.027,10.584,0,14.613h0.012c-11.219,11.229-26.733,18.162-43.848,18.162c-17.125,0-32.629-6.934-43.846-18.162
		c-8.509-8.521-14.539-19.482-16.969-31.764c2.43,12.281,8.46,23.242,16.969,31.764c11.217,11.229,26.721,18.162,43.846,18.162
		c17.114,0,32.629-6.934,43.848-18.162h-0.012c4.027-4.029,4.027-10.572,0-14.613c-4.041-4.039-10.584-4.039-14.612-0.012
		l-0.036-0.037C386.7,389.197,379.425,393.25,371.259,394.885z"/>
	<path fill="none" stroke="#373431" stroke-width="12" stroke-linecap="round" stroke-linejoin="round" stroke-miterlimit="10" d="
		M425.201,354.333c0-17.113-6.934-32.629-18.164-43.834c-8.496-8.509-19.482-14.539-31.738-16.969
		c12.256,2.43,23.242,8.46,31.738,16.969C418.267,321.705,425.201,337.22,425.201,354.333z"/>
	<path fill="none" stroke="#373431" stroke-width="12" stroke-linecap="round" stroke-linejoin="round" stroke-miterlimit="10" d="
		M302.375,342.237c2.43-12.269,8.46-23.229,16.969-31.75c8.508-8.496,19.481-14.526,31.749-16.956
		c-12.268,2.43-23.241,8.46-31.749,16.956C310.835,319.007,304.804,329.968,302.375,342.237z"/>
	<path fill="none" stroke="#373431" stroke-width="12" stroke-linecap="round" stroke-linejoin="round" stroke-miterlimit="10" d="
		M371.49,436.584c12.964,6.859,27.697,10.766,43.371,10.766c5.713,0,10.34,4.639,10.34,10.352c0,5.701-4.627,10.34-10.34,10.34
		c-18.615,0-36.145-4.578-51.672-12.525c15.527,7.947,33.057,12.525,51.672,12.525c5.713,0,10.34-4.639,10.34-10.34
		c0-5.713-4.627-10.352-10.34-10.352C399.187,447.35,384.454,443.443,371.49,436.584z"/>
	<path fill="none" stroke="#373431" stroke-width="12" stroke-linecap="round" stroke-linejoin="round" stroke-miterlimit="10" d="
		M322.272,420.092c3.687,5.188,7.702,10.133,12.194,14.637c3.395,3.381,7.068,6.469,10.865,9.41
		c-3.797-2.941-7.471-6.029-10.865-9.41C329.974,430.225,325.959,425.279,322.272,420.092z"/>
	<path fill="none" stroke="#373431" stroke-width="12" stroke-linecap="round" stroke-linejoin="round" stroke-miterlimit="10" d="
		M304.731,295.875c-14.978,14.967-24.218,35.633-24.218,58.459c0,11.231,1.525,22.094,4.138,32.52
		c-2.612-10.426-4.138-21.289-4.138-32.52C280.513,331.507,289.754,310.841,304.731,295.875z"/>
	<path fill="none" stroke="#373431" stroke-width="12" stroke-linecap="round" stroke-linejoin="round" stroke-miterlimit="10" d="
		M363.153,478.344c-16.296-6.801-30.993-16.711-43.298-29.016c-12.963-12.965-23.181-28.639-29.992-45.996
		c6.812,17.357,17.029,33.031,29.992,45.996C332.16,461.633,346.857,471.543,363.153,478.344z"/>
	<path fill="none" stroke="#373431" stroke-width="12" stroke-linecap="round" stroke-linejoin="round" stroke-miterlimit="10" d="
		M397.552,331.384c4.406,6.556,6.982,14.453,6.982,22.949c0,11.415,9.24,20.678,20.666,20.678c11.4,0,20.666-9.264,20.666-20.678
		c0-11.205-2.259-21.887-6.299-31.641c4.04,9.754,6.299,20.436,6.299,31.641c0,11.415-9.266,20.678-20.666,20.678
		c-11.426,0-20.666-9.264-20.666-20.678C404.535,345.837,401.959,337.94,397.552,331.384z"/>
	<path fill="none" stroke="#373431" stroke-width="12" stroke-linecap="round" stroke-linejoin="round" stroke-miterlimit="10" d="
		M385.211,274.72c13.965,3.857,26.489,11.207,36.449,21.167c3.821,3.809,7.252,8.008,10.279,12.524
		c-3.027-4.517-6.458-8.716-10.279-12.524C411.7,285.927,399.176,278.578,385.211,274.72z"/>
	<path fill="none" stroke="#373431" stroke-width="12" stroke-linecap="round" stroke-linejoin="round" stroke-miterlimit="10" d="
		M259.835,354.333c0-28.527,11.571-54.357,30.285-73.07c18.688-18.701,44.53-30.272,73.069-30.272c5.701,0,10.34,4.639,10.34,10.351
		c0,5.713-4.639,10.328-10.34,10.328c-11.205,0-21.887,2.246-31.627,6.286c9.74-4.04,20.422-6.286,31.627-6.286
		c5.701,0,10.34-4.615,10.34-10.328c0-5.712-4.639-10.351-10.34-10.351c-28.539,0-54.381,11.571-73.069,30.272
		C271.406,299.976,259.835,325.806,259.835,354.333z"/>
	<path fill="none" stroke="#373431" stroke-width="12" stroke-linecap="round" stroke-linejoin="round" stroke-miterlimit="10" d="
		M260.079,285.439c-13.196,19.701-20.911,43.395-20.911,68.895c0,23.829,4.798,46.508,13.404,67.211l-0.025,0.023
		c2.174,5.25,8.228,7.764,13.501,5.58c5.273-2.186,7.776-8.229,5.579-13.502l0.158-0.061c-5.127-12.268-8.605-25.365-10.425-39
		c1.819,13.635,5.298,26.732,10.425,39l-0.158,0.061c2.197,5.273-0.306,11.316-5.579,13.502c-5.273,2.184-11.327-0.33-13.501-5.58
		l0.025-0.023c-8.606-20.703-13.404-43.383-13.404-67.211C239.168,328.833,246.883,305.14,260.079,285.439z"/>
	<path fill="none" stroke="#373431" stroke-width="12" stroke-linecap="round" stroke-linejoin="round" stroke-miterlimit="10" d="
		M466.301,285.439c-22.253-33.228-60.118-55.127-103.111-55.127c-34.252,0-65.258,13.892-87.693,36.328
		c22.436-22.437,53.441-36.328,87.693-36.328C406.182,230.312,444.048,252.211,466.301,285.439z"/>
	<path fill="none" stroke="#373431" stroke-width="12" stroke-linecap="round" stroke-linejoin="round" stroke-miterlimit="10" d="
		M487.199,370.617v-16.284c0-16.82-3.369-32.836-9.436-47.46c6.066,14.624,9.436,30.64,9.436,47.46V370.617z"/>
</g>
</svg>
