<?xml version="1.0" encoding="utf-8"?>
<!-- Generator: Adobe Illustrator 16.0.0, SVG Export Plug-In . SVG Version: 6.00 Build 0)  -->
<!DOCTYPE svg PUBLIC "-//W3C//DTD SVG 1.0//EN" "http://www.w3.org/TR/2001/REC-SVG-20010904/DTD/svg10.dtd">
<svg version="1.0" id="Layer_1" xmlns="http://www.w3.org/2000/svg" xmlns:xlink="http://www.w3.org/1999/xlink" x="0px" y="0px"
	 width="708.66px" height="708.66px" viewBox="0 0 708.66 708.66" enable-background="new 0 0 708.66 708.66" xml:space="preserve">
<g>
	<path fill="none" stroke="#373431" stroke-width="12" stroke-linecap="round" stroke-linejoin="round" stroke-miterlimit="10" d="
		M389.764,106.315h-53.16H389.764z"/>
	<path fill="none" stroke="#373431" stroke-width="12" stroke-linecap="round" stroke-linejoin="round" stroke-miterlimit="10" d="
		M434.063,106.315h-17.725H434.063z"/>
	<path fill="none" stroke="#373431" stroke-width="12" stroke-linecap="round" stroke-linejoin="round" stroke-miterlimit="10" d="
		M239.168,70.866h248.031c29.344,0,53.148,23.791,53.148,53.148v0.012v478.336c0,29.357-23.805,53.15-53.148,53.15H239.168
		c-29.346,0-53.148-23.793-53.148-53.15V124.027v-0.012C186.02,94.67,209.811,70.866,239.168,70.866L239.168,70.866z"/>
	
		<rect x="212.594" y="141.751" fill="none" stroke="#373431" stroke-width="12" stroke-linecap="round" stroke-linejoin="round" stroke-miterlimit="10" width="301.18" height="425.188"/>
	
		<rect x="239.168" y="380.92" fill="none" stroke="#373431" stroke-width="12" stroke-linecap="round" stroke-linejoin="round" stroke-miterlimit="10" width="248.031" height="159.445"/>
	
		<rect x="239.168" y="168.326" fill="none" stroke="#373431" stroke-width="12" stroke-linecap="round" stroke-linejoin="round" stroke-miterlimit="10" width="248.031" height="35.43"/>
	
		<rect x="239.168" y="239.193" fill="none" stroke="#373431" stroke-width="12" stroke-linecap="round" stroke-linejoin="round" stroke-miterlimit="10" width="248.031" height="35.431"/>
	
		<rect x="239.168" y="310.059" fill="none" stroke="#373431" stroke-width="12" stroke-linecap="round" stroke-linejoin="round" stroke-miterlimit="10" width="106.297" height="35.431"/>
	
		<rect x="380.902" y="310.059" fill="none" stroke="#373431" stroke-width="12" stroke-linecap="round" stroke-linejoin="round" stroke-miterlimit="10" width="106.297" height="35.431"/>
	<path fill="none" stroke="#373431" stroke-width="12" stroke-linecap="round" stroke-linejoin="round" stroke-miterlimit="10" d="
		M385.332,611.226c0,12.207-9.924,22.143-22.143,22.143c-12.23,0-22.143-9.936-22.143-22.143c0-12.219,9.912-22.156,22.143-22.156
		C375.408,589.07,385.332,599.008,385.332,611.226z"/>
	
		<rect x="434.051" y="53.155" fill="none" stroke="#373431" stroke-width="12" stroke-linecap="round" stroke-linejoin="round" stroke-miterlimit="10" width="53.148" height="17.712"/>
	
		<rect x="168.307" y="159.464" fill="none" stroke="#373431" stroke-width="12" stroke-linecap="round" stroke-linejoin="round" stroke-miterlimit="10" width="17.713" height="53.148"/>
	
		<rect x="168.307" y="239.186" fill="none" stroke="#373431" stroke-width="12" stroke-linecap="round" stroke-linejoin="round" stroke-miterlimit="10" width="17.713" height="53.149"/>
</g>
</svg>
