<?xml version="1.0" encoding="utf-8"?>
<!-- Generator: Adobe Illustrator 16.0.0, SVG Export Plug-In . SVG Version: 6.00 Build 0)  -->
<!DOCTYPE svg PUBLIC "-//W3C//DTD SVG 1.0//EN" "http://www.w3.org/TR/2001/REC-SVG-20010904/DTD/svg10.dtd">
<svg version="1.0" id="Layer_1" xmlns="http://www.w3.org/2000/svg" xmlns:xlink="http://www.w3.org/1999/xlink" x="0px" y="0px"
	 width="708.66px" height="708.66px" viewBox="0 0 708.66 708.66" enable-background="new 0 0 708.66 708.66" xml:space="preserve">
<g>
	<path fill="none" stroke="#373431" stroke-width="12" stroke-linecap="round" stroke-linejoin="round" stroke-miterlimit="10" d="
		M310.041,106.309h-53.162H310.041z"/>
	<path fill="none" stroke="#373431" stroke-width="12" stroke-linecap="round" stroke-linejoin="round" stroke-miterlimit="10" d="
		M354.34,106.309h-17.725H354.34z"/>
	<path fill="none" stroke="#373431" stroke-width="12" stroke-linecap="round" stroke-linejoin="round" stroke-miterlimit="10" d="
		M305.609,611.22c0,12.207-9.924,22.143-22.143,22.143c-12.232,0-22.145-9.936-22.145-22.143c0-12.23,9.912-22.168,22.145-22.168
		C295.686,589.052,305.609,598.99,305.609,611.22z"/>
	
		<rect x="354.326" y="53.148" fill="none" stroke="#373431" stroke-width="12" stroke-linecap="round" stroke-linejoin="round" stroke-miterlimit="10" width="53.148" height="17.712"/>
	
		<rect x="88.584" y="159.457" fill="none" stroke="#373431" stroke-width="12" stroke-linecap="round" stroke-linejoin="round" stroke-miterlimit="10" width="17.713" height="53.148"/>
	
		<rect x="88.584" y="239.18" fill="none" stroke="#373431" stroke-width="12" stroke-linecap="round" stroke-linejoin="round" stroke-miterlimit="10" width="17.713" height="53.149"/>
	<path fill="none" stroke="#373431" stroke-width="12" stroke-linecap="round" stroke-linejoin="round" stroke-miterlimit="10" d="
		M620.07,283.454c0,68.505-55.506,124.011-124.01,124.011c-68.492,0-124.01-55.506-124.01-124.011
		c0-68.492,55.518-124.009,124.01-124.009C564.564,159.445,620.07,214.962,620.07,283.454z"/>
	<path fill="none" stroke="#373431" stroke-width="12" stroke-linecap="round" stroke-linejoin="round" stroke-miterlimit="10" d="
		M372.051,283.454c0-56.175,37.365-103.55,88.572-118.796v-40.637v-0.012c0-29.357-23.803-53.148-53.148-53.148H159.445
		c-29.357,0-53.148,23.803-53.148,53.148v0.012v478.336c0,29.346,23.803,53.15,53.148,53.15h248.029
		c29.346,0,53.148-23.805,53.148-53.15V402.263C409.416,387.006,372.051,339.631,372.051,283.454z"/>
	<path fill="none" stroke="#373431" stroke-width="12" stroke-linecap="round" stroke-linejoin="round" stroke-miterlimit="10" d="
		M372.051,283.454c0-45.873,24.975-85.826,61.998-107.285v-34.424H132.871v425.188h301.178V390.74
		C397.025,369.293,372.051,329.34,372.051,283.454z"/>
	<path fill="none" stroke="#373431" stroke-width="12" stroke-linecap="round" stroke-linejoin="round" stroke-miterlimit="10" d="
		M221.443,531.486c0,4.869-3.98,8.861-8.85,8.861h-44.299c-4.871,0-8.85-3.992-8.85-8.861v-44.287c0-4.871,3.979-8.861,8.85-8.861
		h44.299c4.869,0,8.85,3.99,8.85,8.861V531.486z"/>
	<path fill="none" stroke="#373431" stroke-width="12" stroke-linecap="round" stroke-linejoin="round" stroke-miterlimit="10" d="
		M407.475,531.486c0,4.869-3.979,8.861-8.861,8.861h-44.287c-4.869,0-8.861-3.992-8.861-8.861v-44.287
		c0-4.871,3.992-8.861,8.861-8.861h44.287c4.883,0,8.861,3.99,8.861,8.861V531.486z"/>
	<path fill="none" stroke="#373431" stroke-width="12" stroke-linecap="round" stroke-linejoin="round" stroke-miterlimit="10" d="
		M314.471,531.486c0,4.869-3.979,8.861-8.861,8.861h-44.299c-4.871,0-8.861-3.992-8.861-8.861v-44.287
		c0-4.871,3.99-8.861,8.861-8.861h44.299c4.883,0,8.861,3.99,8.861,8.861V531.486z"/>
	<path fill="none" stroke="#373431" stroke-width="12" stroke-linecap="round" stroke-linejoin="round" stroke-miterlimit="10" d="
		M536.648,283.467c0,22.418-18.176,40.6-40.6,40.6c-22.438,0-40.602-18.182-40.602-40.6c0-22.43,18.164-40.606,40.602-40.606
		C518.473,242.861,536.648,261.037,536.648,283.467z"/>
	<path fill="none" stroke="#373431" stroke-width="12" stroke-linecap="round" stroke-linejoin="round" stroke-miterlimit="10" d="
		M521.475,344.843c10.4-4.303,22.119-0.03,27.588,9.466c6.775-5.071,12.768-11.077,17.834-17.84
		c-9.496-5.469-13.77-17.193-9.461-27.588c4.311-10.394,15.613-15.654,26.184-12.799c0.6-4.132,1.014-8.324,1.014-12.628
		c0-4.29-0.414-8.483-1.014-12.615c-10.57,2.862-21.873-2.417-26.195-12.812c-4.297-10.394-0.023-22.106,9.473-27.575
		c-5.078-6.769-11.072-12.775-17.834-17.847c-5.48,9.503-17.199,13.775-27.588,9.473c-10.4-4.309-15.674-15.613-12.816-26.196
		c-4.127-0.592-8.313-1.007-12.609-1.007c-4.311,0-8.484,0.415-12.611,1.007c2.857,10.583-2.428,21.893-12.816,26.196
		c-10.4,4.309-22.119,0.037-27.588-9.466c-6.773,5.072-12.768,11.071-17.834,17.846c9.498,5.462,13.77,17.187,9.473,27.582
		c-4.309,10.4-15.625,15.667-26.207,12.805c-0.586,4.139-1.002,8.319-1.002,12.609c0,4.304,0.416,8.503,1.002,12.628
		c10.582-2.855,21.898,2.417,26.207,12.812c4.309,10.406,0.037,22.125-9.473,27.581c5.078,6.769,11.072,12.769,17.834,17.834
		c5.469-9.49,17.199-13.763,27.588-9.466c10.4,4.309,15.674,15.626,12.816,26.208c4.127,0.586,8.314,0.996,12.611,0.996
		s8.496-0.41,12.621-0.996C505.814,360.461,511.086,349.151,521.475,344.843z"/>
</g>
</svg>
