<?xml version="1.0" encoding="utf-8"?>
<!-- Generator: Adobe Illustrator 16.0.0, SVG Export Plug-In . SVG Version: 6.00 Build 0)  -->
<!DOCTYPE svg PUBLIC "-//W3C//DTD SVG 1.0//EN" "http://www.w3.org/TR/2001/REC-SVG-20010904/DTD/svg10.dtd">
<svg version="1.0" id="Layer_1" xmlns="http://www.w3.org/2000/svg" xmlns:xlink="http://www.w3.org/1999/xlink" x="0px" y="0px"
	 width="708.66px" height="708.66px" viewBox="0 0 708.66 708.66" enable-background="new 0 0 708.66 708.66" xml:space="preserve">
<g>
	
		<rect x="70.875" y="370.99" fill="none" stroke="#373431" stroke-width="12" stroke-linecap="round" stroke-linejoin="round" stroke-miterlimit="10" width="566.906" height="266.793"/>
	
		<rect x="87.539" y="387.677" fill="none" stroke="#373431" stroke-width="12" stroke-linecap="round" stroke-linejoin="round" stroke-miterlimit="10" width="33.344" height="33.337"/>
	
		<rect x="137.562" y="387.677" fill="none" stroke="#373431" stroke-width="12" stroke-linecap="round" stroke-linejoin="round" stroke-miterlimit="10" width="33.344" height="33.337"/>
	
		<rect x="187.586" y="387.677" fill="none" stroke="#373431" stroke-width="12" stroke-linecap="round" stroke-linejoin="round" stroke-miterlimit="10" width="33.344" height="33.337"/>
	
		<rect x="237.609" y="387.677" fill="none" stroke="#373431" stroke-width="12" stroke-linecap="round" stroke-linejoin="round" stroke-miterlimit="10" width="33.344" height="33.337"/>
	
		<rect x="287.633" y="387.677" fill="none" stroke="#373431" stroke-width="12" stroke-linecap="round" stroke-linejoin="round" stroke-miterlimit="10" width="33.344" height="33.337"/>
	
		<rect x="337.64" y="387.677" fill="none" stroke="#373431" stroke-width="12" stroke-linecap="round" stroke-linejoin="round" stroke-miterlimit="10" width="33.359" height="33.337"/>
	
		<rect x="387.679" y="387.677" fill="none" stroke="#373431" stroke-width="12" stroke-linecap="round" stroke-linejoin="round" stroke-miterlimit="10" width="33.336" height="33.337"/>
	
		<rect x="437.703" y="387.677" fill="none" stroke="#373431" stroke-width="12" stroke-linecap="round" stroke-linejoin="round" stroke-miterlimit="10" width="33.336" height="33.337"/>
	
		<rect x="487.726" y="387.677" fill="none" stroke="#373431" stroke-width="12" stroke-linecap="round" stroke-linejoin="round" stroke-miterlimit="10" width="33.336" height="33.337"/>
	
		<rect x="537.75" y="387.677" fill="none" stroke="#373431" stroke-width="12" stroke-linecap="round" stroke-linejoin="round" stroke-miterlimit="10" width="33.336" height="33.337"/>
	
		<rect x="587.773" y="387.677" fill="none" stroke="#373431" stroke-width="12" stroke-linecap="round" stroke-linejoin="round" stroke-miterlimit="10" width="33.336" height="33.337"/>
	
		<rect x="87.539" y="437.7" fill="none" stroke="#373431" stroke-width="12" stroke-linecap="round" stroke-linejoin="round" stroke-miterlimit="10" width="33.344" height="33.337"/>
	
		<rect x="137.562" y="437.7" fill="none" stroke="#373431" stroke-width="12" stroke-linecap="round" stroke-linejoin="round" stroke-miterlimit="10" width="33.344" height="33.337"/>
	
		<rect x="187.586" y="437.7" fill="none" stroke="#373431" stroke-width="12" stroke-linecap="round" stroke-linejoin="round" stroke-miterlimit="10" width="33.344" height="33.337"/>
	
		<rect x="237.609" y="437.7" fill="none" stroke="#373431" stroke-width="12" stroke-linecap="round" stroke-linejoin="round" stroke-miterlimit="10" width="33.344" height="33.337"/>
	
		<rect x="287.633" y="437.7" fill="none" stroke="#373431" stroke-width="12" stroke-linecap="round" stroke-linejoin="round" stroke-miterlimit="10" width="33.344" height="33.337"/>
	
		<rect x="337.64" y="437.7" fill="none" stroke="#373431" stroke-width="12" stroke-linecap="round" stroke-linejoin="round" stroke-miterlimit="10" width="33.359" height="33.337"/>
	
		<rect x="387.687" y="437.7" fill="none" stroke="#373431" stroke-width="12" stroke-linecap="round" stroke-linejoin="round" stroke-miterlimit="10" width="83.352" height="33.337"/>
	
		<rect x="487.726" y="437.7" fill="none" stroke="#373431" stroke-width="12" stroke-linecap="round" stroke-linejoin="round" stroke-miterlimit="10" width="33.336" height="33.337"/>
	
		<rect x="537.75" y="437.7" fill="none" stroke="#373431" stroke-width="12" stroke-linecap="round" stroke-linejoin="round" stroke-miterlimit="10" width="33.336" height="33.337"/>
	
		<rect x="587.773" y="437.7" fill="none" stroke="#373431" stroke-width="12" stroke-linecap="round" stroke-linejoin="round" stroke-miterlimit="10" width="33.336" height="33.337"/>
	
		<rect x="87.539" y="487.712" fill="none" stroke="#373431" stroke-width="12" stroke-linecap="round" stroke-linejoin="round" stroke-miterlimit="10" width="83.367" height="33.35"/>
	
		<rect x="187.586" y="487.712" fill="none" stroke="#373431" stroke-width="12" stroke-linecap="round" stroke-linejoin="round" stroke-miterlimit="10" width="33.344" height="33.35"/>
	
		<rect x="237.609" y="487.712" fill="none" stroke="#373431" stroke-width="12" stroke-linecap="round" stroke-linejoin="round" stroke-miterlimit="10" width="33.344" height="33.35"/>
	
		<rect x="287.633" y="487.712" fill="none" stroke="#373431" stroke-width="12" stroke-linecap="round" stroke-linejoin="round" stroke-miterlimit="10" width="33.344" height="33.35"/>
	
		<rect x="337.64" y="487.712" fill="none" stroke="#373431" stroke-width="12" stroke-linecap="round" stroke-linejoin="round" stroke-miterlimit="10" width="33.359" height="33.35"/>
	
		<rect x="387.679" y="487.712" fill="none" stroke="#373431" stroke-width="12" stroke-linecap="round" stroke-linejoin="round" stroke-miterlimit="10" width="33.336" height="33.35"/>
	
		<rect x="487.726" y="487.712" fill="none" stroke="#373431" stroke-width="12" stroke-linecap="round" stroke-linejoin="round" stroke-miterlimit="10" width="33.336" height="33.35"/>
	
		<rect x="537.75" y="487.712" fill="none" stroke="#373431" stroke-width="12" stroke-linecap="round" stroke-linejoin="round" stroke-miterlimit="10" width="33.336" height="33.35"/>
	
		<rect x="587.773" y="487.712" fill="none" stroke="#373431" stroke-width="12" stroke-linecap="round" stroke-linejoin="round" stroke-miterlimit="10" width="33.336" height="33.35"/>
	
		<rect x="87.539" y="537.735" fill="none" stroke="#373431" stroke-width="12" stroke-linecap="round" stroke-linejoin="round" stroke-miterlimit="10" width="83.367" height="33.337"/>
	
		<rect x="187.586" y="537.735" fill="none" stroke="#373431" stroke-width="12" stroke-linecap="round" stroke-linejoin="round" stroke-miterlimit="10" width="33.344" height="33.337"/>
	
		<rect x="237.609" y="537.735" fill="none" stroke="#373431" stroke-width="12" stroke-linecap="round" stroke-linejoin="round" stroke-miterlimit="10" width="33.344" height="33.337"/>
	
		<rect x="287.633" y="537.735" fill="none" stroke="#373431" stroke-width="12" stroke-linecap="round" stroke-linejoin="round" stroke-miterlimit="10" width="33.344" height="33.337"/>
	
		<rect x="337.64" y="537.735" fill="none" stroke="#373431" stroke-width="12" stroke-linecap="round" stroke-linejoin="round" stroke-miterlimit="10" width="33.359" height="33.337"/>
	
		<polygon fill="none" stroke="#373431" stroke-width="12" stroke-linecap="round" stroke-linejoin="round" stroke-miterlimit="10" points="
		437.703,487.712 437.703,537.735 387.687,537.735 387.687,571.072 471.039,571.072 471.039,487.712 	"/>
	
		<rect x="487.726" y="537.735" fill="none" stroke="#373431" stroke-width="12" stroke-linecap="round" stroke-linejoin="round" stroke-miterlimit="10" width="33.336" height="33.337"/>
	
		<rect x="537.75" y="537.735" fill="none" stroke="#373431" stroke-width="12" stroke-linecap="round" stroke-linejoin="round" stroke-miterlimit="10" width="33.336" height="33.337"/>
	
		<rect x="587.773" y="537.735" fill="none" stroke="#373431" stroke-width="12" stroke-linecap="round" stroke-linejoin="round" stroke-miterlimit="10" width="33.336" height="33.337"/>
	
		<rect x="87.539" y="587.759" fill="none" stroke="#373431" stroke-width="12" stroke-linecap="round" stroke-linejoin="round" stroke-miterlimit="10" width="33.344" height="33.35"/>
	
		<rect x="137.562" y="587.759" fill="none" stroke="#373431" stroke-width="12" stroke-linecap="round" stroke-linejoin="round" stroke-miterlimit="10" width="33.344" height="33.35"/>
	
		<rect x="187.586" y="587.759" fill="none" stroke="#373431" stroke-width="12" stroke-linecap="round" stroke-linejoin="round" stroke-miterlimit="10" width="233.43" height="33.35"/>
	
		<rect x="437.703" y="587.759" fill="none" stroke="#373431" stroke-width="12" stroke-linecap="round" stroke-linejoin="round" stroke-miterlimit="10" width="33.336" height="33.35"/>
	
		<rect x="487.726" y="587.759" fill="none" stroke="#373431" stroke-width="12" stroke-linecap="round" stroke-linejoin="round" stroke-miterlimit="10" width="33.336" height="33.35"/>
	
		<rect x="537.75" y="587.759" fill="none" stroke="#373431" stroke-width="12" stroke-linecap="round" stroke-linejoin="round" stroke-miterlimit="10" width="33.336" height="33.35"/>
	
		<rect x="587.773" y="587.759" fill="none" stroke="#373431" stroke-width="12" stroke-linecap="round" stroke-linejoin="round" stroke-miterlimit="10" width="33.336" height="33.35"/>
	<path fill="none" stroke="#373431" stroke-width="12" stroke-linecap="round" stroke-linejoin="round" stroke-miterlimit="10" d="
		M426.015,160.276c17.117,0,34.258-6.543,47.32-19.604c12.109-12.134,28.828-19.604,47.336-19.604l0,0l0,0
		c36.961,0,66.914,29.956,66.914,66.918v0.024c0,36.938-29.953,66.918-66.914,66.918l0,0l0,0c-18.508,0-35.227-7.495-47.336-19.604
		c-13.063-13.061-30.203-19.604-47.32-19.604V160.276z"/>
	
		<polygon fill="none" stroke="#373431" stroke-width="12" stroke-linecap="round" stroke-linejoin="round" stroke-miterlimit="10" points="
		426.015,160.276 372.453,160.276 358.125,169.821 358.125,206.149 372.453,215.72 426.015,215.72 	"/>
	<path fill="none" stroke="#373431" stroke-width="12" stroke-linecap="round" stroke-linejoin="round" stroke-miterlimit="10" d="
		M385.859,160.276l-13.406,55.443L385.859,160.276z"/>
	<path fill="none" stroke="#373431" stroke-width="12" stroke-linecap="round" stroke-linejoin="round" stroke-miterlimit="10" d="
		M410.953,160.276l-13.398,55.443L410.953,160.276z"/>
	<path fill="none" stroke="#373431" stroke-width="12" stroke-linecap="round" stroke-linejoin="round" stroke-miterlimit="10" d="
		M464.25,197.556c5.273,0,9.57-4.272,9.57-9.57c0-5.273-4.297-9.546-9.57-9.546l0,0h-38.234v19.116H464.25L464.25,197.556z"/>
	<path fill="none" stroke="#373431" stroke-width="12" stroke-linecap="round" stroke-linejoin="round" stroke-miterlimit="10" d="
		M469.914,180.344l50.758-21.044c0,10.57,8.547,19.115,19.117,19.14c-5.273,5.273-5.273,13.818,0,19.116
		c-10.57,0-19.117,8.545-19.117,19.116l-50.758-21.021l50.758,21.021c0-10.571,8.547-19.116,19.117-19.116
		c-5.273-5.298-5.273-13.843,0-19.116c-10.57-0.024-19.117-8.569-19.117-19.14L469.914,180.344z"/>
	<path fill="none" stroke="#373431" stroke-width="12" stroke-linecap="round" stroke-linejoin="round" stroke-miterlimit="10" d="
		M637.781,187.985h-25.094H637.781z"/>
	<path fill="none" stroke="#373431" stroke-width="12" stroke-linecap="round" stroke-linejoin="round" stroke-miterlimit="10" d="
		M520.672,70.873v25.098V70.873z"/>
	<path fill="none" stroke="#373431" stroke-width="12" stroke-linecap="round" stroke-linejoin="round" stroke-miterlimit="10" d="
		M520.656,305.122v-25.097V305.122z"/>
	<path fill="none" stroke="#373431" stroke-width="12" stroke-linecap="round" stroke-linejoin="round" stroke-miterlimit="10" d="
		M603.469,270.797l-17.734-17.749L603.469,270.797z"/>
	<path fill="none" stroke="#373431" stroke-width="12" stroke-linecap="round" stroke-linejoin="round" stroke-miterlimit="10" d="
		M603.484,105.175l-17.75,17.748L603.484,105.175z"/>
	<path fill="none" stroke="#373431" stroke-width="12" stroke-linecap="round" stroke-linejoin="round" stroke-miterlimit="10" d="
		M437.859,105.175l17.75,17.748L437.859,105.175z"/>
	<path fill="none" stroke="#373431" stroke-width="12" stroke-linecap="round" stroke-linejoin="round" stroke-miterlimit="10" d="
		M437.859,270.797l17.75-17.749L437.859,270.797z"/>
	<path fill="none" stroke="#373431" stroke-width="12" stroke-linecap="round" stroke-linejoin="round" stroke-miterlimit="10" d="
		M628.851,143.187l-46.367,19.189L628.851,143.187z"/>
	<path fill="none" stroke="#373431" stroke-width="12" stroke-linecap="round" stroke-linejoin="round" stroke-miterlimit="10" d="
		M565.484,296.211l-19.203-46.386L565.484,296.211z"/>
	<path fill="none" stroke="#373431" stroke-width="12" stroke-linecap="round" stroke-linejoin="round" stroke-miterlimit="10" d="
		M475.844,79.784l19.219,46.386L475.844,79.784z"/>
	<path fill="none" stroke="#373431" stroke-width="12" stroke-linecap="round" stroke-linejoin="round" stroke-miterlimit="10" d="
		M475.844,296.211l19.219-46.386L475.844,296.211z"/>
	<path fill="none" stroke="#373431" stroke-width="12" stroke-linecap="round" stroke-linejoin="round" stroke-miterlimit="10" d="
		M565.469,79.784l-19.188,46.386L565.469,79.784z"/>
	<path fill="none" stroke="#373431" stroke-width="12" stroke-linecap="round" stroke-linejoin="round" stroke-miterlimit="10" d="
		M628.859,232.809l-46.352-19.188L628.859,232.809z"/>
	<path fill="none" stroke="#373431" stroke-width="12" stroke-linecap="round" stroke-linejoin="round" stroke-miterlimit="10" d="
		M358.125,188.01H124.008c-29.352,0-53.148,23.779-53.148,53.148c0,29.346,23.797,53.148,53.141,53.148l177.195-0.012
		c29.344,0,53.133,23.791,53.133,53.148v23.535v-23.535c0-29.357-23.789-53.148-53.133-53.148L124,294.307
		c-29.344,0-53.141-23.803-53.141-53.148c0-29.369,23.797-53.148,53.148-53.148H358.125z"/>
</g>
</svg>
