<?xml version="1.0" encoding="utf-8"?>
<!-- Generator: Adobe Illustrator 16.0.0, SVG Export Plug-In . SVG Version: 6.00 Build 0)  -->
<!DOCTYPE svg PUBLIC "-//W3C//DTD SVG 1.0//EN" "http://www.w3.org/TR/2001/REC-SVG-20010904/DTD/svg10.dtd">
<svg version="1.0" id="Layer_1" xmlns="http://www.w3.org/2000/svg" xmlns:xlink="http://www.w3.org/1999/xlink" x="0px" y="0px"
	 width="708.66px" height="708.66px" viewBox="0 0 708.66 708.66" enable-background="new 0 0 708.66 708.66" xml:space="preserve">
<g>
	<path fill="none" stroke="#373431" stroke-width="12" stroke-linecap="round" stroke-linejoin="round" stroke-miterlimit="10" d="
		M655.525,580.22c0,9.203-7.532,16.723-16.736,16.723H270.677c-9.204,0-16.724-7.52-16.724-16.723v-0.025
		c0-9.179,7.52-16.723,16.724-16.723h368.112c9.204,0,16.736,7.544,16.736,16.723V580.22z"/>
	<path fill="none" stroke="#373431" stroke-width="12" stroke-linecap="round" stroke-linejoin="round" stroke-miterlimit="10" d="
		M622.066,546.749c0,9.18-7.532,16.724-16.736,16.724H304.148c-9.204,0-16.724-7.544-16.724-16.724V362.668
		c0-9.203,7.52-16.723,16.724-16.723H605.33c9.204,0,16.736,7.52,16.736,16.723V546.749z"/>
	
		<rect x="312.522" y="371.043" fill="none" stroke="#373431" stroke-width="12" stroke-linecap="round" stroke-linejoin="round" stroke-miterlimit="10" width="284.446" height="167.332"/>
	<path fill="none" stroke="#373431" stroke-width="12" stroke-linecap="round" stroke-linejoin="round" stroke-miterlimit="10" d="
		M220.482,638.789c0,9.204-7.52,16.724-16.725,16.724h-66.93c-9.217,0-16.736-7.52-16.736-16.724V504.927
		c0-9.203,7.52-16.723,16.736-16.723h66.93c9.205,0,16.725,7.52,16.725,16.723V638.789z"/>
	<path fill="none" stroke="#373431" stroke-width="12" stroke-linecap="round" stroke-linejoin="round" stroke-miterlimit="10" d="
		M220.482,521.676v-16.748c0-9.203-7.52-16.723-16.725-16.723h-66.93c-9.217,0-16.736,7.52-16.736,16.723v16.748H220.482z"/>
	<path fill="none" stroke="#373431" stroke-width="12" stroke-linecap="round" stroke-linejoin="round" stroke-miterlimit="10" d="
		M120.092,622.041v16.748c0,9.204,7.52,16.724,16.736,16.724h66.93c9.205,0,16.725-7.52,16.725-16.724v-16.748H120.092z"/>
	<path fill="none" stroke="#373431" stroke-width="12" stroke-linecap="round" stroke-linejoin="round" stroke-miterlimit="10" d="
		M454.732,287.4v33.472h83.667c9.204,0,16.724-7.544,16.724-16.748V287.4H454.732z"/>
	<path fill="none" stroke="#373431" stroke-width="12" stroke-linecap="round" stroke-linejoin="round" stroke-miterlimit="10" d="
		M538.399,53.149H371.066c-9.191,0-16.723,7.52-16.723,16.748v108.739h62.743c20.765,0,37.646,16.87,37.646,37.646v104.589h83.667
		c9.204,0,16.724-7.544,16.724-16.748V69.897C555.123,60.669,547.604,53.149,538.399,53.149z"/>
	<path fill="none" stroke="#373431" stroke-width="12" stroke-linecap="round" stroke-linejoin="round" stroke-miterlimit="10" d="
		M287.425,530.025v-75.293h-83.69c0,11.549-1.465,22.73-4.053,33.473h4.076c9.205,0,16.725,7.52,16.725,16.723v25.098H287.425z"/>
	<path fill="none" stroke="#373431" stroke-width="12" stroke-linecap="round" stroke-linejoin="round" stroke-miterlimit="10" d="
		M287.425,417.062H53.162c0,20.801,16.881,37.67,37.646,37.67h196.617V417.062z"/>
	<path fill="none" stroke="#373431" stroke-width="12" stroke-linecap="round" stroke-linejoin="round" stroke-miterlimit="10" d="
		M287.425,362.668c0-9.203,7.52-16.723,16.724-16.723h150.584V216.283c0-20.776-16.881-37.646-37.646-37.646H90.808
		c-20.765,0-37.646,16.87-37.646,37.646v200.779h234.263V362.668z"/>
</g>
</svg>
