<?xml version="1.0" encoding="utf-8"?>
<!-- Generator: Adobe Illustrator 16.0.0, SVG Export Plug-In . SVG Version: 6.00 Build 0)  -->
<!DOCTYPE svg PUBLIC "-//W3C//DTD SVG 1.0//EN" "http://www.w3.org/TR/2001/REC-SVG-20010904/DTD/svg10.dtd">
<svg version="1.0" id="Layer_1" xmlns="http://www.w3.org/2000/svg" xmlns:xlink="http://www.w3.org/1999/xlink" x="0px" y="0px"
	 width="708.66px" height="708.66px" viewBox="0 0 708.66 708.66" enable-background="new 0 0 708.66 708.66" xml:space="preserve">
<g>
	<path fill="none" stroke="#373431" stroke-width="12" stroke-linecap="round" stroke-linejoin="round" stroke-miterlimit="10" d="
		M580.174,407.46l15.516,124.021L580.174,407.46z"/>
	<path fill="none" stroke="#373431" stroke-width="12" stroke-linecap="round" stroke-linejoin="round" stroke-miterlimit="10" d="
		M559.117,137.96v-25.171c-5.322-43.602-42.406-77.365-87.424-77.365c-45.031,0-82.104,33.764-87.449,77.365v25.171
		c-11.414,4.053-19.617,14.819-19.617,27.587c0,25.072,12.721,45.36,28.553,46.068c14.574,44.896,44.236,75.706,78.514,75.706
		c34.252,0,63.902-30.81,78.488-75.706c15.832-0.708,28.564-20.996,28.564-46.068C578.746,152.779,570.52,142.012,559.117,137.96z"
		/>
	<path fill="none" stroke="#373431" stroke-width="12" stroke-linecap="round" stroke-linejoin="round" stroke-miterlimit="10" d="
		M460.828,151.656H406.57v15.502c0,8.545,6.982,15.527,15.514,15.527h23.254c8.521,0,15.49-6.982,15.49-15.527V151.656z"/>
	<path fill="none" stroke="#373431" stroke-width="12" stroke-linecap="round" stroke-linejoin="round" stroke-miterlimit="10" d="
		M406.57,151.656l-22.326-13.696L406.57,151.656z"/>
	<path fill="none" stroke="#373431" stroke-width="12" stroke-linecap="round" stroke-linejoin="round" stroke-miterlimit="10" d="
		M482.533,151.656h54.246v15.502c0,8.545-6.971,15.527-15.502,15.527h-23.254c-8.533,0-15.49-6.982-15.49-15.527V151.656z"/>
	<path fill="none" stroke="#373431" stroke-width="12" stroke-linecap="round" stroke-linejoin="round" stroke-miterlimit="10" d="
		M536.791,151.656l22.326-13.696L536.791,151.656z"/>
	<path fill="none" stroke="#373431" stroke-width="12" stroke-linecap="round" stroke-linejoin="round" stroke-miterlimit="10" d="
		M460.828,151.656h21.705H460.828z"/>
	<path fill="none" stroke="#373431" stroke-width="12" stroke-linecap="round" stroke-linejoin="round" stroke-miterlimit="10" d="
		M452.309,240.668c10.705,10.692,28.063,10.692,38.756,0C480.371,251.36,463.014,251.36,452.309,240.668z"/>
	<path fill="none" stroke="#373431" stroke-width="12" stroke-linecap="round" stroke-linejoin="round" stroke-miterlimit="10" d="
		M559.117,137.96c-24.219,0-46.141-9.813-62.01-25.683l0,0c-17.127-17.114-39.563-25.684-62.01-25.684
		c-28.088,0-50.854,22.998-50.854,51.366v-25.171c5.346-43.602,42.418-77.365,87.449-77.365c45.018,0,82.102,33.764,87.424,77.365
		V137.96z"/>
	<path fill="none" stroke="#373431" stroke-width="12" stroke-linecap="round" stroke-linejoin="round" stroke-miterlimit="10" d="
		M471.693,345.449c25.658,0,48.35-12.523,62.449-31.736c-4.271-2.051-8.227-4.664-11.535-7.984
		c-7.496-7.47-12.109-17.821-12.109-29.246v-3.418c-11.707,9.082-24.877,14.257-38.805,14.257c-13.941,0-27.1-5.175-38.805-14.257
		v3.418c0,11.425-4.639,21.776-12.123,29.246c-3.32,3.32-7.262,5.934-11.547,7.959C423.33,332.926,446.021,345.449,471.693,345.449z
		"/>
	<path fill="none" stroke="#373431" stroke-width="12" stroke-linecap="round" stroke-linejoin="round" stroke-miterlimit="10" d="
		M536.021,314.713c-0.658-0.268-1.232-0.707-1.879-1c-14.1,19.213-36.791,31.736-62.449,31.736
		c-25.672,0-48.363-12.523-62.475-31.762c-0.635,0.318-1.209,0.732-1.893,1.025l-27.221,11.279
		c19.25,30.297,53.027,50.463,91.576,50.463c38.561,0,72.324-20.166,91.586-50.463L536.021,314.713z"/>
	<path fill="none" stroke="#373431" stroke-width="12" stroke-linecap="round" stroke-linejoin="round" stroke-miterlimit="10" d="
		M425.186,637.776H35.432v17.725c0,9.741,7.971,17.7,17.717,17.7h354.324c9.742,0,17.713-7.959,17.713-17.7V637.776z"/>
	<path fill="none" stroke="#373431" stroke-width="12" stroke-linecap="round" stroke-linejoin="round" stroke-miterlimit="10" d="
		M425.186,611.166c0,14.623-11.963,26.586-26.574,26.586H62.004c-14.617,0-26.572-11.963-26.572-26.586V416.298
		c0-14.624,11.955-26.587,26.572-26.587h336.607c14.611,0,26.574,11.963,26.574,26.587V611.166z"/>
	<path fill="none" stroke="#373431" stroke-width="12" stroke-linecap="round" stroke-linejoin="round" stroke-miterlimit="10" d="
		M398.611,389.711c14.611,0,26.574,11.963,26.574,26.587V531.48h248.027l-0.023-118.21c0-19.677-7.971-37.499-20.85-50.39
		l-89.072-36.889c-19.262,30.297-53.025,50.463-91.586,50.463c-38.549,0-72.326-20.166-91.576-50.463l-89.066,36.889
		c-7.482,7.471-13.238,16.65-16.809,26.83H398.611z"/>
	<path fill="none" stroke="#373431" stroke-width="12" stroke-linecap="round" stroke-linejoin="round" stroke-miterlimit="10" d="
		M256.885,513.756c0,14.673-11.895,26.586-26.574,26.586c-14.678,0-26.574-11.913-26.574-26.586
		c0-14.672,11.896-26.562,26.574-26.562C244.99,487.194,256.885,499.084,256.885,513.756z"/>
</g>
</svg>
