<?xml version="1.0" encoding="utf-8"?>
<!-- Generator: Adobe Illustrator 16.0.0, SVG Export Plug-In . SVG Version: 6.00 Build 0)  -->
<!DOCTYPE svg PUBLIC "-//W3C//DTD SVG 1.0//EN" "http://www.w3.org/TR/2001/REC-SVG-20010904/DTD/svg10.dtd">
<svg version="1.0" id="Layer_1" xmlns="http://www.w3.org/2000/svg" xmlns:xlink="http://www.w3.org/1999/xlink" x="0px" y="0px"
	 width="708.66px" height="708.66px" viewBox="0 0 708.66 708.66" enable-background="new 0 0 708.66 708.66" xml:space="preserve">
<g>
	<path fill="none" stroke="#373431" stroke-width="12" stroke-linecap="round" stroke-linejoin="round" stroke-miterlimit="10" d="
		M504.647,511.642c-4.725,1.172-12.586,2.148-17.457,2.148H115.154c-4.871,0-12.726-0.977-17.45-2.148l-53.68-13.428
		c-4.724-1.172-8.594-6.129-8.594-11.012l0,0c0-4.857,3.985-8.861,8.856-8.861h513.778c4.87,0,8.862,4.004,8.862,8.861l0,0
		c0,4.883-3.869,9.84-8.594,11.012L504.647,511.642z"/>
	
		<rect x="248.032" y="478.342" fill="none" stroke="#373431" stroke-width="12" stroke-linecap="round" stroke-linejoin="round" stroke-miterlimit="10" width="106.299" height="17.725"/>
	
		<rect x="115.148" y="239.183" fill="none" stroke="#373431" stroke-width="12" stroke-linecap="round" stroke-linejoin="round" stroke-miterlimit="10" width="372.042" height="212.596"/>
	<path fill="none" stroke="#373431" stroke-width="12" stroke-linecap="round" stroke-linejoin="round" stroke-miterlimit="10" d="
		M487.19,194.872c14.686,0,26.575,11.913,26.575,26.587v256.883H88.573V221.459c0-14.674,11.896-26.587,26.575-26.587H487.19z"/>
	<path fill="none" stroke="#373431" stroke-width="12" stroke-linecap="round" stroke-linejoin="round" stroke-miterlimit="10" d="
		M292.319,217.039h17.719H292.319z"/>
	
		<rect x="513.766" y="283.469" fill="none" stroke="#373431" stroke-width="12" stroke-linecap="round" stroke-linejoin="round" stroke-miterlimit="10" width="132.872" height="177.171"/>
	<path fill="none" stroke="#373431" stroke-width="12" stroke-linecap="round" stroke-linejoin="round" stroke-miterlimit="10" d="
		M646.65,248.045H513.766v230.297h44.299c4.87,0,8.862,4.004,8.862,8.861c0,3.369-1.904,6.689-4.602,8.863h84.325
		c14.66,0,26.562-11.891,26.562-26.588l0.013-194.871C673.225,259.935,661.335,248.045,646.65,248.045z"/>
</g>
</svg>
