<?xml version="1.0" encoding="utf-8"?>
<!-- Generator: Adobe Illustrator 16.0.0, SVG Export Plug-In . SVG Version: 6.00 Build 0)  -->
<!DOCTYPE svg PUBLIC "-//W3C//DTD SVG 1.0//EN" "http://www.w3.org/TR/2001/REC-SVG-20010904/DTD/svg10.dtd">
<svg version="1.0" id="Layer_1" xmlns="http://www.w3.org/2000/svg" xmlns:xlink="http://www.w3.org/1999/xlink" x="0px" y="0px"
	 width="708.66px" height="708.66px" viewBox="0 0 708.66 708.66" enable-background="new 0 0 708.66 708.66" xml:space="preserve">
<g>
	
		<rect x="92.115" y="92.113" fill="none" stroke="#373431" stroke-width="12" stroke-linecap="round" stroke-linejoin="round" stroke-miterlimit="10" width="276.389" height="191.332"/>
	
		<rect x="70.875" y="70.873" fill="none" stroke="#373431" stroke-width="12" stroke-linecap="round" stroke-linejoin="round" stroke-miterlimit="10" width="318.893" height="233.836"/>
	<path fill="none" stroke="#373431" stroke-width="12" stroke-linecap="round" stroke-linejoin="round" stroke-miterlimit="10" d="
		M315.33,139.953v111.632V139.953z"/>
	
		<polygon fill="none" stroke="#373431" stroke-width="12" stroke-linecap="round" stroke-linejoin="round" stroke-miterlimit="10" points="
		327.758,152.354 315.355,139.953 302.927,152.354 315.355,139.953 	"/>
	
		<polygon fill="none" stroke="#373431" stroke-width="12" stroke-linecap="round" stroke-linejoin="round" stroke-miterlimit="10" points="
		296.726,181.59 315.355,162.986 333.959,181.59 315.355,162.986 	"/>
	
		<polygon fill="none" stroke="#373431" stroke-width="12" stroke-linecap="round" stroke-linejoin="round" stroke-miterlimit="10" points="
		340.135,210.826 315.355,186.021 290.525,210.826 315.355,186.021 	"/>
	
		<polygon fill="none" stroke="#373431" stroke-width="12" stroke-linecap="round" stroke-linejoin="round" stroke-miterlimit="10" points="
		288.767,235.618 315.355,209.057 341.918,235.618 315.355,209.057 	"/>
	<path fill="none" stroke="#373431" stroke-width="12" stroke-linecap="round" stroke-linejoin="round" stroke-miterlimit="10" d="
		M198.412,251.561c-11.768,0-21.924,6.445-27.465,15.942H92.115v15.942h276.389v-31.885H198.412z"/>
	<path fill="none" stroke="#373431" stroke-width="12" stroke-linecap="round" stroke-linejoin="round" stroke-miterlimit="10" d="
		M170.947,267.503c5.541-9.497,15.697-15.942,27.465-15.942l0,0h71.752L166.527,113.378l-74.412,99.218v54.907H170.947z"/>
	<path fill="none" stroke="#373431" stroke-width="12" stroke-linecap="round" stroke-linejoin="round" stroke-miterlimit="10" d="
		M237.767,208.348c19.922-3.516,35.059-20.873,35.059-41.809c0-23.486-19.043-42.517-42.506-42.517
		c-16.697,0-31.127,9.644-38.084,23.646L237.767,208.348z"/>
	
		<rect x="566.939" y="106.298" fill="none" stroke="#373431" stroke-width="12" stroke-linecap="round" stroke-linejoin="round" stroke-miterlimit="10" width="35.426" height="35.425"/>
	
		<rect x="531.49" y="106.298" fill="none" stroke="#373431" stroke-width="12" stroke-linecap="round" stroke-linejoin="round" stroke-miterlimit="10" width="35.449" height="35.425"/>
	
		<rect x="496.066" y="106.298" fill="none" stroke="#373431" stroke-width="12" stroke-linecap="round" stroke-linejoin="round" stroke-miterlimit="10" width="35.424" height="35.425"/>
	<path fill="none" stroke="#373431" stroke-width="12" stroke-linecap="round" stroke-linejoin="round" stroke-miterlimit="10" d="
		M610.494,220.97c-9.008-3.76-19.408,0.55-23.145,9.595L485.64,476.082l-5.932,83.826l55.029-63.488l101.707-245.519
		c3.736-9.009-0.512-19.409-9.594-23.169L610.494,220.97z"/>
	<path fill="none" stroke="#373431" stroke-width="12" stroke-linecap="round" stroke-linejoin="round" stroke-miterlimit="10" d="
		M622.885,283.628l-49.098-20.337l13.563-32.727c3.736-9.045,14.137-13.354,23.145-9.595l16.357,6.763
		c9.082,3.76,13.33,14.16,9.594,23.169L622.885,283.628z"/>
	<path fill="none" stroke="#373431" stroke-width="12" stroke-linecap="round" stroke-linejoin="round" stroke-miterlimit="10" d="
		M609.322,316.379l-69.494,167.772l-0.012-0.013c-2.783,6.775-10.547,10.01-17.359,7.19c-6.762-2.796-9.961-10.571-7.152-17.334
		l69.494-167.772L609.322,316.379z"/>
	<path fill="none" stroke="#373431" stroke-width="12" stroke-linecap="round" stroke-linejoin="round" stroke-miterlimit="10" d="
		M539.828,484.151l-5.09,12.269l-55.029,63.488l5.932-83.826l5.078-12.243c-2.795,6.751,0.428,14.515,7.203,17.321
		c6.787,2.82,14.574-0.402,17.383-7.165c-2.809,6.763,0.391,14.538,7.152,17.334c6.813,2.819,14.576-0.415,17.359-7.19
		L539.828,484.151z"/>
	<path fill="none" stroke="#373431" stroke-width="12" stroke-linecap="round" stroke-linejoin="round" stroke-miterlimit="10" d="
		M560.226,296.043l-69.508,167.796c-2.795,6.751,0.428,14.515,7.203,17.321c6.787,2.82,14.574-0.402,17.383-7.165l69.494-167.772
		L560.226,296.043z"/>
	
		<polygon fill="none" stroke="#373431" stroke-width="12" stroke-linecap="round" stroke-linejoin="round" stroke-miterlimit="10" points="
		609.322,316.379 560.226,296.043 573.787,263.291 622.885,283.628 	"/>
	
		<polygon fill="none" stroke="#373431" stroke-width="12" stroke-linecap="round" stroke-linejoin="round" stroke-miterlimit="10" points="
		389.767,177.172 389.767,304.709 141.722,304.709 141.722,411.02 460.642,411.02 460.642,177.172 	"/>
	
		<rect x="389.767" y="106.298" fill="none" stroke="#373431" stroke-width="12" stroke-linecap="round" stroke-linejoin="round" stroke-miterlimit="10" width="106.299" height="35.425"/>
	<path fill="none" stroke="#373431" stroke-width="12" stroke-linecap="round" stroke-linejoin="round" stroke-miterlimit="10" d="
		M534.738,496.42l-55.029,63.488l5.932-83.826l101.709-245.518c2.637-6.372,8.594-10.327,15.016-10.815V106.298H389.767v198.411
		H106.299v333.079h496.066V333.152L534.738,496.42z"/>
	
		<rect x="141.722" y="446.457" fill="none" stroke="#373431" stroke-width="12" stroke-linecap="round" stroke-linejoin="round" stroke-miterlimit="10" width="318.92" height="35.424"/>
	<path fill="none" stroke="#373431" stroke-width="12" stroke-linecap="round" stroke-linejoin="round" stroke-miterlimit="10" d="
		M141.722,517.318h70.875H141.722z"/>
	<path fill="none" stroke="#373431" stroke-width="12" stroke-linecap="round" stroke-linejoin="round" stroke-miterlimit="10" d="
		M141.722,552.754h141.723H141.722z"/>
	<path fill="none" stroke="#373431" stroke-width="12" stroke-linecap="round" stroke-linejoin="round" stroke-miterlimit="10" d="
		M141.722,588.191h106.299H141.722z"/>
	<path fill="none" stroke="#373431" stroke-width="12" stroke-linecap="round" stroke-linejoin="round" stroke-miterlimit="10" d="
		M318.894,517.318h124.023H318.894z"/>
	<path fill="none" stroke="#373431" stroke-width="12" stroke-linecap="round" stroke-linejoin="round" stroke-miterlimit="10" d="
		M496.066,177.172h35.424H496.066z"/>
	<path fill="none" stroke="#373431" stroke-width="12" stroke-linecap="round" stroke-linejoin="round" stroke-miterlimit="10" d="
		M496.066,212.596h70.85H496.066z"/>
	<path fill="none" stroke="#373431" stroke-width="12" stroke-linecap="round" stroke-linejoin="round" stroke-miterlimit="10" d="
		M496.066,248.021h53.148H496.066z"/>
	<path fill="none" stroke="#373431" stroke-width="12" stroke-linecap="round" stroke-linejoin="round" stroke-miterlimit="10" d="
		M318.894,552.754h88.598H318.894z"/>
	<path fill="none" stroke="#373431" stroke-width="12" stroke-linecap="round" stroke-linejoin="round" stroke-miterlimit="10" d="
		M318.894,588.191h248.045H318.894z"/>
</g>
</svg>
