<?xml version="1.0" encoding="utf-8"?>
<!-- Generator: Adobe Illustrator 16.0.0, SVG Export Plug-In . SVG Version: 6.00 Build 0)  -->
<!DOCTYPE svg PUBLIC "-//W3C//DTD SVG 1.0//EN" "http://www.w3.org/TR/2001/REC-SVG-20010904/DTD/svg10.dtd">
<svg version="1.0" id="Layer_1" xmlns="http://www.w3.org/2000/svg" xmlns:xlink="http://www.w3.org/1999/xlink" x="0px" y="0px"
	 width="708.66px" height="708.66px" viewBox="0 0 708.66 708.66" enable-background="new 0 0 708.66 708.66" xml:space="preserve">
<g>
	<path fill="none" stroke="#373431" stroke-width="12" stroke-linecap="round" stroke-linejoin="round" stroke-miterlimit="10" d="
		M383.168,265.338c0-0.909-0.051-1.825-0.148-2.74c-3.477,0.183-7.176,1.233-11.082,3.137c-3.906,1.929-7.129,4.346-9.668,7.263
		c-5.09,5.75-7.945,12.781-7.945,19.354c0,0.916,0.059,1.776,0.168,2.6c7.875,0.635,15.164-3.43,21.18-10.461
		C380.652,278.577,383.168,272.181,383.168,265.338z"/>
	<path fill="none" stroke="#373431" stroke-width="12" stroke-linecap="round" stroke-linejoin="round" stroke-miterlimit="10" d="
		M296.679,347.584c0,8.001,1.465,16.277,4.395,24.822c2.734,7.91,6.238,14.844,10.5,20.832c3.953,5.603,7.273,9.552,9.91,11.865
		c4.152,3.845,8.301,5.682,12.453,5.505c2.746-0.091,6.324-1.031,10.766-2.832c4.445-1.788,8.594-2.673,12.477-2.673
		c3.688,0,7.727,0.885,12.121,2.673c4.371,1.801,8.129,2.686,11.242,2.686c4.348-0.098,8.398-1.88,12.195-5.358
		c2.441-2.125,5.602-5.939,9.473-11.457c2.832-4.053,5.285-8.453,7.359-13.238c0.855-2.032,1.66-4.145,2.418-6.342
		c-3.504-1.477-6.652-3.546-9.484-6.226c-6.227-5.774-9.387-13.037-9.473-21.771c-0.109-11.219,4.98-19.965,15.281-26.203
		c-5.762-8.179-14.402-12.72-25.926-13.647c-4.25-0.366-9.438,0.556-15.578,2.765c-6.504,2.393-10.336,3.583-11.473,3.583
		c-1.516,0-4.969-1.025-10.34-3.045c-5.395-2.008-9.73-3.027-13.035-3.027c-6.055,0.098-11.672,1.672-16.871,4.754
		c-5.188,3.083-9.34,7.282-12.453,12.61C298.66,330.494,296.679,338.404,296.679,347.584z"/>
	<path fill="none" stroke="#373431" stroke-width="12" stroke-linecap="round" stroke-linejoin="round" stroke-miterlimit="10" d="
		M673.23,531.488c0,29.236-23.914,53.15-53.148,53.15H88.586c-29.234,0-53.148-23.914-53.148-53.15V177.155
		c0-29.229,23.914-53.149,53.148-53.149h531.496c29.234,0,53.148,23.92,53.148,53.149V531.488z"/>
	<path fill="none" stroke="#373431" stroke-width="12" stroke-linecap="round" stroke-linejoin="round" stroke-miterlimit="10" d="
		M62.011,354.328v177.16c0,14.648,11.914,26.575,26.574,26.575h265.75H88.586c-14.66,0-26.574-11.927-26.574-26.575V354.328z"/>
	<path fill="none" stroke="#373431" stroke-width="12" stroke-linecap="round" stroke-linejoin="round" stroke-miterlimit="10" d="
		M646.656,354.328V177.155c0-14.654-11.926-26.575-26.574-26.575H88.586h531.496c14.648,0,26.574,11.92,26.574,26.575V354.328z"/>
</g>
</svg>
