<?xml version="1.0" encoding="utf-8"?>
<!-- Generator: Adobe Illustrator 16.0.0, SVG Export Plug-In . SVG Version: 6.00 Build 0)  -->
<!DOCTYPE svg PUBLIC "-//W3C//DTD SVG 1.0//EN" "http://www.w3.org/TR/2001/REC-SVG-20010904/DTD/svg10.dtd">
<svg version="1.0" id="Layer_1" xmlns="http://www.w3.org/2000/svg" xmlns:xlink="http://www.w3.org/1999/xlink" x="0px" y="0px"
	 width="708.66px" height="708.66px" viewBox="0 0 708.66 708.66" enable-background="new 0 0 708.66 708.66" xml:space="preserve">
<g>
	
		<rect x="106.299" y="212.602" fill="none" stroke="#373431" stroke-width="12" stroke-linecap="round" stroke-linejoin="round" stroke-miterlimit="10" width="283.469" height="141.729"/>
	
		<rect x="106.299" y="141.735" fill="none" stroke="#373431" stroke-width="12" stroke-linecap="round" stroke-linejoin="round" stroke-miterlimit="10" width="283.469" height="35.431"/>
	
		<rect x="106.299" y="389.755" fill="none" stroke="#373431" stroke-width="12" stroke-linecap="round" stroke-linejoin="round" stroke-miterlimit="10" width="318.895" height="248.033"/>
	
		<rect x="132.885" y="416.336" fill="none" stroke="#373431" stroke-width="12" stroke-linecap="round" stroke-linejoin="round" stroke-miterlimit="10" width="265.746" height="194.878"/>
	
		<rect x="70.875" y="70.867" fill="none" stroke="#373431" stroke-width="12" stroke-linecap="round" stroke-linejoin="round" stroke-miterlimit="10" width="566.914" height="35.431"/>
	
		<rect x="602.363" y="70.867" fill="none" stroke="#373431" stroke-width="12" stroke-linecap="round" stroke-linejoin="round" stroke-miterlimit="10" width="35.426" height="35.431"/>
	
		<rect x="566.916" y="70.867" fill="none" stroke="#373431" stroke-width="12" stroke-linecap="round" stroke-linejoin="round" stroke-miterlimit="10" width="35.447" height="35.431"/>
	
		<rect x="531.49" y="70.867" fill="none" stroke="#373431" stroke-width="12" stroke-linecap="round" stroke-linejoin="round" stroke-miterlimit="10" width="35.426" height="35.431"/>
	
		<polygon fill="none" stroke="#373431" stroke-width="12" stroke-linecap="round" stroke-linejoin="round" stroke-miterlimit="10" points="
		349.754,611.214 223.533,442.91 132.885,563.753 132.885,611.214 	"/>
	<path fill="none" stroke="#373431" stroke-width="12" stroke-linecap="round" stroke-linejoin="round" stroke-miterlimit="10" d="
		M310.277,558.589c24.266-4.284,42.699-25.451,42.699-50.939c0-28.612-23.168-51.806-51.77-51.806
		c-20.35,0-37.902,11.743-46.375,28.809L310.277,558.589z"/>
	
		<polygon fill="none" stroke="#373431" stroke-width="12" stroke-linecap="round" stroke-linejoin="round" stroke-miterlimit="10" points="
		513.791,256.888 540.354,310.037 487.203,310.001 	"/>
	
		<polygon fill="none" stroke="#373431" stroke-width="12" stroke-linecap="round" stroke-linejoin="round" stroke-miterlimit="10" points="
		425.193,513.777 513.791,513.777 513.791,310.019 513.791,513.777 	"/>
	
		<polygon fill="none" stroke="#373431" stroke-width="12" stroke-linecap="round" stroke-linejoin="round" stroke-miterlimit="10" points="
		425.193,141.735 425.193,283.463 500.484,283.463 513.791,256.888 527.072,283.463 602.363,283.463 602.363,141.735 	"/>
	
		<polygon fill="none" stroke="#373431" stroke-width="12" stroke-linecap="round" stroke-linejoin="round" stroke-miterlimit="10" points="
		70.875,106.304 70.875,425.198 106.299,425.198 106.299,389.755 425.193,389.755 425.193,425.198 637.789,425.198 637.789,106.304 
			"/>
</g>
</svg>
