<?xml version="1.0" encoding="utf-8"?>
<!-- Generator: Adobe Illustrator 16.0.0, SVG Export Plug-In . SVG Version: 6.00 Build 0)  -->
<!DOCTYPE svg PUBLIC "-//W3C//DTD SVG 1.0//EN" "http://www.w3.org/TR/2001/REC-SVG-20010904/DTD/svg10.dtd">
<svg version="1.0" id="Layer_1" xmlns="http://www.w3.org/2000/svg" xmlns:xlink="http://www.w3.org/1999/xlink" x="0px" y="0px"
	 width="708.66px" height="708.66px" viewBox="0 0 708.66 708.66" enable-background="new 0 0 708.66 708.66" xml:space="preserve">
<g>
	
		<rect x="372.691" y="106.299" fill="none" stroke="#373431" stroke-width="12" stroke-linecap="round" stroke-linejoin="round" stroke-miterlimit="10" width="28.637" height="28.637"/>
	<path fill="none" stroke="#373431" stroke-width="12" stroke-linecap="round" stroke-linejoin="round" stroke-miterlimit="10" d="
		M654.156,106.299H119.922c-10.535,0-19.092,8.544-19.092,19.091v51.782h444.307c9.021,0,16.346,7.324,16.346,16.357v294.357h92.65
		c10.535,0,19.092-8.545,19.092-19.066V125.389C673.225,114.843,664.68,106.299,654.156,106.299z"/>
	<path fill="none" stroke="#373431" stroke-width="12" stroke-linecap="round" stroke-linejoin="round" stroke-miterlimit="10" d="
		M129.467,134.935v42.236h415.67c9.021,0,16.346,7.324,16.346,16.357v265.744H644.6V134.935H129.467z"/>
	
		<rect x="303.881" y="177.172" fill="none" stroke="#373431" stroke-width="12" stroke-linecap="round" stroke-linejoin="round" stroke-miterlimit="10" width="24.547" height="24.535"/>
	<path fill="none" stroke="#373431" stroke-width="12" stroke-linecap="round" stroke-linejoin="round" stroke-miterlimit="10" d="
		M430.66,248.02c7.52,0,13.623,6.128,13.623,13.647v245.311c0,7.52-6.115,13.623-13.635,13.623H49.072
		c-7.52,0-13.646-6.104-13.646-13.623V261.668c0-7.52,6.127-13.647,13.646-13.647H430.66z"/>
	<path fill="none" stroke="#373431" stroke-width="12" stroke-linecap="round" stroke-linejoin="round" stroke-miterlimit="10" d="
		M545.137,177.172H87.23c-9.033,0-16.357,7.324-16.357,16.357v54.491H430.66c7.52,0,13.623,6.128,13.623,13.647v242.576h100.842
		c9.021,0,16.357-7.324,16.357-16.333V193.529C561.482,184.496,554.158,177.172,545.137,177.172z"/>
	<path fill="none" stroke="#373431" stroke-width="12" stroke-linecap="round" stroke-linejoin="round" stroke-miterlimit="10" d="
		M95.41,201.707v46.313h335.25c7.52,0,13.623,6.128,13.623,13.647v218.04h92.662V201.707H95.41z"/>
	
		<rect x="55.859" y="268.479" fill="none" stroke="#373431" stroke-width="12" stroke-linecap="round" stroke-linejoin="round" stroke-miterlimit="10" width="367.965" height="231.688"/>
	
		<rect x="229.613" y="248.02" fill="none" stroke="#373431" stroke-width="12" stroke-linecap="round" stroke-linejoin="round" stroke-miterlimit="10" width="20.459" height="20.459"/>
	
		<rect x="219.408" y="500.167" fill="none" stroke="#373431" stroke-width="12" stroke-linecap="round" stroke-linejoin="round" stroke-miterlimit="10" width="40.893" height="20.435"/>
	
		<polygon fill="none" stroke="#373431" stroke-width="12" stroke-linecap="round" stroke-linejoin="round" stroke-miterlimit="10" points="
		294.371,602.363 185.352,602.363 205.785,520.601 273.912,520.601 	"/>
	<path fill="none" stroke="#373431" stroke-width="12" stroke-linecap="round" stroke-linejoin="round" stroke-miterlimit="10" d="
		M441.451,514.888c-2.479,3.369-6.299,5.713-10.803,5.713h-69.518l20.459,81.762h81.762L441.451,514.888z"/>
	
		<polygon fill="none" stroke="#373431" stroke-width="12" stroke-linecap="round" stroke-linejoin="round" stroke-miterlimit="10" points="
		273.912,520.601 294.371,602.363 381.59,602.363 361.131,520.601 	"/>
	
		<polygon fill="none" stroke="#373431" stroke-width="12" stroke-linecap="round" stroke-linejoin="round" stroke-miterlimit="10" points="
		204.406,313.449 168.969,313.449 168.969,348.875 168.969,313.449 	"/>
	
		<polygon fill="none" stroke="#373431" stroke-width="12" stroke-linecap="round" stroke-linejoin="round" stroke-miterlimit="10" points="
		310.717,348.875 310.717,313.426 275.279,313.426 310.717,313.426 	"/>
	
		<polygon fill="none" stroke="#373431" stroke-width="12" stroke-linecap="round" stroke-linejoin="round" stroke-miterlimit="10" points="
		275.279,455.197 310.717,455.197 310.717,419.748 310.717,455.197 	"/>
	
		<polygon fill="none" stroke="#373431" stroke-width="12" stroke-linecap="round" stroke-linejoin="round" stroke-miterlimit="10" points="
		168.969,419.722 168.969,455.197 204.406,455.197 168.969,455.197 	"/>
	<path fill="none" stroke="#373431" stroke-width="12" stroke-linecap="round" stroke-linejoin="round" stroke-miterlimit="10" d="
		M168.969,313.449l141.748,141.748L168.969,313.449z"/>
	<path fill="none" stroke="#373431" stroke-width="12" stroke-linecap="round" stroke-linejoin="round" stroke-miterlimit="10" d="
		M168.969,455.197l141.748-141.748L168.969,455.197z"/>
</g>
</svg>
