<?xml version="1.0" encoding="utf-8"?>
<!-- Generator: Adobe Illustrator 16.0.0, SVG Export Plug-In . SVG Version: 6.00 Build 0)  -->
<!DOCTYPE svg PUBLIC "-//W3C//DTD SVG 1.0//EN" "http://www.w3.org/TR/2001/REC-SVG-20010904/DTD/svg10.dtd">
<svg version="1.0" id="Layer_1" xmlns="http://www.w3.org/2000/svg" xmlns:xlink="http://www.w3.org/1999/xlink" x="0px" y="0px"
	 width="708.66px" height="708.66px" viewBox="0 0 708.66 708.66" enable-background="new 0 0 708.66 708.66" xml:space="preserve">
<g>
	<path fill="none" stroke="#373431" stroke-width="12" stroke-linecap="round" stroke-linejoin="round" stroke-miterlimit="10" d="
		M358.517,64.611h-43.774H358.517z"/>
	<path fill="none" stroke="#373431" stroke-width="12" stroke-linecap="round" stroke-linejoin="round" stroke-miterlimit="10" d="
		M394.992,64.611h-14.6H394.992z"/>
	<path fill="none" stroke="#373431" stroke-width="12" stroke-linecap="round" stroke-linejoin="round" stroke-miterlimit="10" d="
		M354.855,480.447c0,10.045-8.154,18.225-18.237,18.225s-18.237-8.18-18.237-18.225c0-10.084,8.154-18.262,18.237-18.262
		S354.855,470.363,354.855,480.447z"/>
	<path fill="none" stroke="#373431" stroke-width="12" stroke-linecap="round" stroke-linejoin="round" stroke-miterlimit="10" d="
		M507.857,401.682l-25.342-25.342L507.857,401.682z"/>
	<path fill="none" stroke="#373431" stroke-width="12" stroke-linecap="round" stroke-linejoin="round" stroke-miterlimit="10" d="
		M482.515,376.34v-44.299l66.699,66.7c11.816,11.816,17.699,27.295,17.699,42.76v231.719H363.107v-41.223L248.02,516.922h186.034
		v-88.824l-41.26-41.26c-12.818-12.816-20.752-30.541-20.752-50.097c0-19.58,7.91-37.305,20.752-50.122L482.515,376.34z"/>
	<path fill="none" stroke="#373431" stroke-width="12" stroke-linecap="round" stroke-linejoin="round" stroke-miterlimit="10" d="
		M434.054,516.922v32.273V516.922z"/>
	<path fill="none" stroke="#373431" stroke-width="12" stroke-linecap="round" stroke-linejoin="round" stroke-miterlimit="10" d="
		M190.72,137.669l-28.246-28.246c-12.818,12.842-20.752,30.566-20.752,50.121c0,19.58,7.934,37.28,20.752,50.122l28.246,28.222
		V137.669z"/>
	<path fill="none" stroke="#373431" stroke-width="12" stroke-linecap="round" stroke-linejoin="round" stroke-miterlimit="10" d="
		M190.72,237.888l-40.137,40.137v162.743c14.063,0,28.076-4.297,40.137-12.609V237.888z"/>
	<path fill="none" stroke="#373431" stroke-width="12" stroke-linecap="round" stroke-linejoin="round" stroke-miterlimit="10" d="
		M434.054,428.098l-41.26-41.26c-12.818-12.816-20.752-30.541-20.752-50.097c0-19.58,7.91-37.305,20.752-50.122l89.721,89.721
		v-44.299V79.223v-0.024c0-24.158-19.604-43.774-43.75-43.774H234.495c-24.194,0-43.774,19.617-43.774,43.774v0.024v393.923
		c0,24.158,19.604,43.775,43.774,43.775h13.525h186.034V428.098z"/>
	<path fill="none" stroke="#373431" stroke-width="12" stroke-linecap="round" stroke-linejoin="round" stroke-miterlimit="10" d="
		M434.054,428.098l-41.26-41.26c-12.818-12.816-20.752-30.541-20.752-50.097c0-19.58,7.91-37.305,20.752-50.122l67.846,67.847V93.81
		H212.595v350.157h221.459V428.098z"/>
	<path fill="none" stroke="#373431" stroke-width="12" stroke-linecap="round" stroke-linejoin="round" stroke-miterlimit="10" d="
		M341.476,180.699c0,13.453-10.913,24.365-24.365,24.365c-13.451,0-24.365-10.912-24.365-24.365
		c0-13.451,10.914-24.358,24.365-24.358C330.563,156.34,341.476,167.248,341.476,180.699z"/>
	<path fill="none" stroke="#373431" stroke-width="12" stroke-linecap="round" stroke-linejoin="round" stroke-miterlimit="10" d="
		M375.583,239.165c13.817,0,26.489-4.821,36.499-12.842l-26.393-42.242c-5.566-8.887-14.672-8.887-20.214,0l-26.392,42.248
		C349.094,234.343,361.764,239.165,375.583,239.165z"/>
	<path fill="none" stroke="#373431" stroke-width="12" stroke-linecap="round" stroke-linejoin="round" stroke-miterlimit="10" d="
		M345.456,336.613c0,29.352-23.779,53.155-53.149,53.155c-29.346,0-53.148-23.803-53.148-53.155
		c0-29.358,23.803-53.155,53.148-53.155C321.677,283.458,345.456,307.254,345.456,336.613z"/>
	<path fill="none" stroke="#373431" stroke-width="12" stroke-linecap="round" stroke-linejoin="round" stroke-miterlimit="10" d="
		M292.306,366.494c-0.293,0-0.609-0.109-0.83-0.334l-24.926-24.934c-0.025-0.018-0.025-0.036-0.049-0.061
		c-1.441-1.459-2.564-3.149-3.369-5.054c-0.781-1.923-1.197-3.949-1.197-6.024c0-2.087,0.416-4.132,1.197-6.042
		c0.805-1.923,1.953-3.644,3.418-5.121c1.488-1.465,3.197-2.606,5.127-3.411c3.832-1.605,8.227-1.594,12.061,0
		c1.928,0.787,3.662,1.94,5.127,3.411c1.465,1.478,2.611,3.198,3.418,5.121c0,0.019,0.023,0.043,0.023,0.073
		c0.025-0.03,0.025-0.055,0.049-0.073c0.781-1.923,1.93-3.644,3.395-5.121c1.465-1.465,3.197-2.618,5.127-3.411
		c3.832-1.594,8.227-1.605,12.061,0c1.928,0.805,3.661,1.946,5.126,3.411c1.465,1.478,2.637,3.198,3.418,5.121
		c0.806,1.923,1.196,3.955,1.196,6.042c0,2.069-0.391,4.102-1.196,6.024s-1.953,3.632-3.418,5.114l-24.927,24.934
		C292.918,366.385,292.599,366.494,292.306,366.494z"/>
	<path fill="none" stroke="#373431" stroke-width="12" stroke-linecap="round" stroke-linejoin="round" stroke-miterlimit="10" d="
		M345.456,336.613c0,29.352-23.779,53.155-53.149,53.155c-29.346,0-53.148-23.803-53.148-53.155
		c0-29.358,23.803-53.155,53.148-53.155C321.677,283.458,345.456,307.254,345.456,336.613z"/>
	<path fill="none" stroke="#373431" stroke-width="12" stroke-linecap="round" stroke-linejoin="round" stroke-miterlimit="10" d="
		M256.662,297.434c9.449-8.6,21.875-13.977,35.645-13.977c3.564,0,7.057,0.378,10.426,1.05l12.426-19.892l-29.174-46.648
		c-4.297-6.909-11.377-6.909-15.699,0l-31.127,49.798v10.382C239.158,288.224,246.848,296.416,256.662,297.434z"/>
	<path fill="none" stroke="#373431" stroke-width="12" stroke-linecap="round" stroke-linejoin="round" stroke-miterlimit="10" d="
		M292.306,283.458c13.893,0,26.44,5.45,35.913,14.179h55.591c2.637-3.968,5.639-7.666,8.984-11.018l11.035,11.018h10.717
		c10.768,0,19.482-8.729,19.482-19.501V161.217c0-10.761-8.715-19.488-19.482-19.488l-155.906-0.007
		c-10.742,0-19.482,8.729-19.482,19.501v116.924c0,10.077,7.69,18.269,17.504,19.287
		C266.111,288.834,278.537,283.458,292.306,283.458z"/>
	<path fill="none" stroke="#373431" stroke-width="12" stroke-linecap="round" stroke-linejoin="round" stroke-miterlimit="10" d="
		M383.81,297.636c2.637-3.968,5.639-7.666,8.984-11.018l11.035,11.018h10.717c10.768,0,19.482-8.729,19.482-19.501V261.46
		l-48.34-77.38c-5.566-8.887-14.672-8.887-20.214,0l-62.769,100.427c9.766,1.935,18.457,6.641,25.513,13.129H383.81z"/>
</g>
</svg>
