<?xml version="1.0" encoding="utf-8"?>
<!-- Generator: Adobe Illustrator 16.0.0, SVG Export Plug-In . SVG Version: 6.00 Build 0)  -->
<!DOCTYPE svg PUBLIC "-//W3C//DTD SVG 1.0//EN" "http://www.w3.org/TR/2001/REC-SVG-20010904/DTD/svg10.dtd">
<svg version="1.0" id="Layer_1" xmlns="http://www.w3.org/2000/svg" xmlns:xlink="http://www.w3.org/1999/xlink" x="0px" y="0px"
	 width="708.66px" height="708.66px" viewBox="0 0 708.66 708.66" enable-background="new 0 0 708.66 708.66" xml:space="preserve">
<g>
	<path fill="none" stroke="#373431" stroke-width="12" stroke-linecap="round" stroke-linejoin="round" stroke-miterlimit="10" d="
		M560.517,480.892l-17.957-17.969L560.517,480.892z"/>
	<path fill="none" stroke="#373431" stroke-width="12" stroke-linecap="round" stroke-linejoin="round" stroke-miterlimit="10" d="
		M508.234,560.371v22.852V560.371z"/>
	<path fill="none" stroke="#373431" stroke-width="12" stroke-linecap="round" stroke-linejoin="round" stroke-miterlimit="10" d="
		M148.142,480.892l17.957-17.969L148.142,480.892z"/>
	<path fill="none" stroke="#373431" stroke-width="12" stroke-linecap="round" stroke-linejoin="round" stroke-miterlimit="10" d="
		M200.426,560.371v22.852V560.371z"/>
	<path fill="none" stroke="#373431" stroke-width="12" stroke-linecap="round" stroke-linejoin="round" stroke-miterlimit="10" d="
		M373.166,524.849c0,10.413-8.436,18.836-18.836,18.836s-18.822-8.423-18.822-18.836c0-10.388,8.422-18.811,18.822-18.811
		S373.166,514.461,373.166,524.849z"/>
	<path fill="none" stroke="#373431" stroke-width="12" stroke-linecap="round" stroke-linejoin="round" stroke-miterlimit="10" d="
		M340.207,63.671h28.234H340.207z"/>
	<path fill="none" stroke="#373431" stroke-width="12" stroke-linecap="round" stroke-linejoin="round" stroke-miterlimit="10" d="
		M396.676,63.671h9.424H396.676z"/>
	
		<polygon fill="none" stroke="#373431" stroke-width="12" stroke-linecap="round" stroke-linejoin="round" stroke-miterlimit="10" points="
		222.545,251.914 229.599,223.68 271.933,223.68 279.013,251.914 250.765,138.964 	"/>
	<path fill="none" stroke="#373431" stroke-width="12" stroke-linecap="round" stroke-linejoin="round" stroke-miterlimit="10" d="
		M316.683,138.964h169.408H316.683z"/>
	<path fill="none" stroke="#373431" stroke-width="12" stroke-linecap="round" stroke-linejoin="round" stroke-miterlimit="10" d="
		M316.683,176.609h169.408H316.683z"/>
	<path fill="none" stroke="#373431" stroke-width="12" stroke-linecap="round" stroke-linejoin="round" stroke-miterlimit="10" d="
		M316.683,214.256h169.408H316.683z"/>
	<path fill="none" stroke="#373431" stroke-width="12" stroke-linecap="round" stroke-linejoin="round" stroke-miterlimit="10" d="
		M316.683,251.902h169.408H316.683z"/>
	<path fill="none" stroke="#373431" stroke-width="12" stroke-linecap="round" stroke-linejoin="round" stroke-miterlimit="10" d="
		M222.545,289.548h263.547H222.545z"/>
	<path fill="none" stroke="#373431" stroke-width="12" stroke-linecap="round" stroke-linejoin="round" stroke-miterlimit="10" d="
		M222.545,327.194h263.547H222.545z"/>
	<path fill="none" stroke="#373431" stroke-width="12" stroke-linecap="round" stroke-linejoin="round" stroke-miterlimit="10" d="
		M222.545,364.841h263.547H222.545z"/>
	<path fill="none" stroke="#373431" stroke-width="12" stroke-linecap="round" stroke-linejoin="round" stroke-miterlimit="10" d="
		M476.435,402.486H232.236H476.435z"/>
	<path fill="none" stroke="#373431" stroke-width="12" stroke-linecap="round" stroke-linejoin="round" stroke-miterlimit="10" d="
		M464.84,440.133H243.808H464.84z"/>
	<path fill="none" stroke="#373431" stroke-width="12" stroke-linecap="round" stroke-linejoin="round" stroke-miterlimit="10" d="
		M376.472,562.508h131.762v-62.927l-29.211-29.224c-9.105-9.082-14.709-21.631-14.709-35.498s5.604-26.428,14.709-35.497
		l63.537,63.549v0.012v-31.384l47.254,47.277c8.373,8.35,12.549,19.324,12.549,30.262v164.158H457.992v-19.8
		c0-5.175-3.004-12.401-6.654-16.063C451.338,637.373,376.472,562.52,376.472,562.508z"/>
	<path fill="none" stroke="#373431" stroke-width="12" stroke-linecap="round" stroke-linejoin="round" stroke-miterlimit="10" d="
		M166.099,462.923v-31.384l-47.266,47.277c-8.35,8.35-12.523,19.324-12.523,30.262v164.158h144.357v-19.8
		c0-5.175,3.004-12.401,6.666-16.063c0,0,74.854-74.854,74.854-74.865H200.426v-62.927l29.211-29.224
		c9.094-9.082,14.709-21.631,14.709-35.498s-5.615-26.428-14.709-35.497l-63.537,63.549V462.923z"/>
	<path fill="none" stroke="#373431" stroke-width="12" stroke-linecap="round" stroke-linejoin="round" stroke-miterlimit="10" d="
		M508.234,499.581l-29.211-29.224c-9.105-9.082-14.709-21.631-14.709-35.498s5.604-26.428,14.709-35.497l63.537,63.549v-31.372
		V73.07c0-20.776-16.846-37.634-37.633-37.634L203.72,35.424c-20.775,0-37.621,16.87-37.621,37.646v358.469l0,0v31.372
		l63.549-63.549c9.082,9.069,14.697,21.63,14.697,35.497s-5.615,26.416-14.697,35.498l-29.199,29.224v62.927h307.799
		L508.234,499.581z"/>
	<path fill="none" stroke="#373431" stroke-width="12" stroke-linecap="round" stroke-linejoin="round" stroke-miterlimit="10" d="
		M229.636,399.362c9.094,9.069,14.709,21.63,14.709,35.497s-5.615,26.416-14.709,35.498l-16.857,16.857h283.09l-16.846-16.857
		c-9.105-9.082-14.709-21.631-14.709-35.498s5.604-26.428,14.709-35.497l44.727,44.726V91.905H184.898v352.183L229.636,399.362z"/>
</g>
</svg>
