<?xml version="1.0" encoding="utf-8"?>
<!-- Generator: Adobe Illustrator 16.0.0, SVG Export Plug-In . SVG Version: 6.00 Build 0)  -->
<!DOCTYPE svg PUBLIC "-//W3C//DTD SVG 1.0//EN" "http://www.w3.org/TR/2001/REC-SVG-20010904/DTD/svg10.dtd">
<svg version="1.0" id="Layer_1" xmlns="http://www.w3.org/2000/svg" xmlns:xlink="http://www.w3.org/1999/xlink" x="0px" y="0px"
	 width="708.66px" height="708.66px" viewBox="0 0 708.66 708.66" enable-background="new 0 0 708.66 708.66" xml:space="preserve">
<g>
	<path fill="none" stroke="#373431" stroke-width="12" stroke-linecap="round" stroke-linejoin="round" stroke-miterlimit="10" d="
		M177.163,496.032l-17.725,141.744L177.163,496.032z"/>
	<path fill="none" stroke="#373431" stroke-width="12" stroke-linecap="round" stroke-linejoin="round" stroke-miterlimit="10" d="
		M336.594,348.427c-11.022,6.568-22.937,10.303-35.424,10.303c-15.93,0-30.969-5.908-44.347-16.259v3.882
		c0,13.061-5.286,24.901-13.843,33.422c-4.37,4.369-9.57,7.861-15.355,10.254L94.718,445.105
		c-14.746,14.746-23.852,35.082-23.852,57.566v135.104h265.728V348.427z"/>
	<path fill="none" stroke="#373431" stroke-width="12" stroke-linecap="round" stroke-linejoin="round" stroke-miterlimit="10" d="
		M336.594,77.316c-11.022-4.15-22.948-6.469-35.424-6.469c-51.451,0-93.82,38.598-99.937,88.426v28.759
		c-13.037,4.638-22.411,16.942-22.411,31.566c0,28.612,14.525,51.806,32.628,52.61c16.663,51.318,50.548,86.521,89.72,86.521
		c12.476,0,24.401-3.588,35.424-10.131V77.316z"/>
	<path fill="none" stroke="#373431" stroke-width="12" stroke-linecap="round" stroke-linejoin="round" stroke-miterlimit="10" d="
		M547.582,379.189l-18.799-18.799L547.582,379.189z"/>
	<path fill="none" stroke="#373431" stroke-width="12" stroke-linecap="round" stroke-linejoin="round" stroke-miterlimit="10" d="
		M589.779,549.179c0,22.437-18.162,40.6-40.586,40.6c-22.438,0-40.6-18.163-40.6-40.6c0-22.411,18.162-40.574,40.6-40.574
		C571.617,508.605,589.779,526.768,589.779,549.179z"/>
	<path fill="none" stroke="#373431" stroke-width="12" stroke-linecap="round" stroke-linejoin="round" stroke-miterlimit="10" d="
		M574.619,610.555c10.389-4.297,22.094-0.024,27.574,9.472c6.775-5.077,12.77-11.083,17.834-17.846
		c-9.496-5.469-13.768-17.188-9.459-27.587c4.309-10.4,15.611-15.649,26.184-12.793c0.598-4.126,1.014-8.325,1.014-12.622
		s-0.416-8.471-1.014-12.597c-10.572,2.856-21.887-2.441-26.184-12.817c-4.309-10.4-0.037-22.119,9.459-27.563
		c-5.064-6.787-11.07-12.793-17.834-17.871c-5.48,9.521-17.199,13.794-27.586,9.497c-10.4-4.321-15.674-15.624-12.805-26.22
		c-4.139-0.586-8.326-1.001-12.609-1.001c-4.311,0-8.484,0.415-12.623,1.001c2.857,10.596-2.416,21.898-12.805,26.22
		c-10.4,4.297-22.105,0.024-27.563-9.472c-6.775,5.077-12.768,11.059-17.846,17.846c9.508,5.443,13.781,17.188,9.473,27.563
		c-4.311,10.4-15.613,15.674-26.209,12.817c-0.598,4.126-1,8.3-1,12.597s0.402,8.496,1,12.622
		c10.596-2.856,21.898,2.417,26.209,12.817c4.309,10.4,0.035,22.119-9.473,27.587c5.078,6.763,11.07,12.744,17.846,17.821
		c5.457-9.496,17.176-13.769,27.563-9.472c10.389,4.321,15.662,15.624,12.805,26.22c4.139,0.586,8.313,1.001,12.623,1.001
		c4.297,0,8.482-0.415,12.609-1.001C558.945,626.179,564.23,614.877,574.619,610.555z"/>
	<path fill="none" stroke="#373431" stroke-width="12" stroke-linecap="round" stroke-linejoin="round" stroke-miterlimit="10" d="
		M613.607,259.71v-23.413V259.71z"/>
	<path fill="none" stroke="#373431" stroke-width="12" stroke-linecap="round" stroke-linejoin="round" stroke-miterlimit="10" d="
		M558.25,73.386c-3.369-3.369-8.861-3.369-12.244,0.023l0,0L417.324,202.045l-27.551,45.971l45.934-27.563L564.391,91.769l0,0
		c3.381-3.369,3.369-8.861,0-12.23L558.25,73.386z"/>
	<path fill="none" stroke="#373431" stroke-width="12" stroke-linecap="round" stroke-linejoin="round" stroke-miterlimit="10" d="
		M533.752,85.642l18.383,18.383L533.752,85.642z"/>
	<path fill="none" stroke="#373431" stroke-width="12" stroke-linecap="round" stroke-linejoin="round" stroke-miterlimit="10" d="
		M521.496,97.897l18.383,18.384L521.496,97.897z"/>
	<path fill="none" stroke="#373431" stroke-width="12" stroke-linecap="round" stroke-linejoin="round" stroke-miterlimit="10" d="
		M417.324,202.07l18.383,18.383L417.324,202.07z"/>
	<path fill="none" stroke="#373431" stroke-width="12" stroke-linecap="round" stroke-linejoin="round" stroke-miterlimit="10" d="
		M594.564,401.088l-87.693-87.668c-10.375-10.376-27.207-10.376-37.584,0l0,0L336.594,446.106v110.397l51.275,51.293
		c10.375,10.375,27.195,10.4,37.572,0l46.264-46.264c-3.271-0.659-6.703-0.659-10.084,0.269c-0.598-4.126-1-8.325-1-12.622
		s0.402-8.471,1-12.597c10.596,2.856,21.898-2.417,26.209-12.817c4.309-10.375,0.035-22.119-9.473-27.563
		c5.078-6.787,11.07-12.769,17.846-17.846c5.457,9.496,17.162,13.769,27.563,9.472c10.389-4.321,15.662-15.624,12.805-26.22
		c4.139-0.586,8.313-1.001,12.623-1.001c4.283,0,8.471,0.415,12.609,1.001c-0.916,3.393-0.916,6.836-0.27,10.107l33.02-33.031h0.012
		C604.941,428.308,604.941,411.464,594.564,401.088z"/>
	<path fill="none" stroke="#373431" stroke-width="12" stroke-linecap="round" stroke-linejoin="round" stroke-miterlimit="10" d="
		M463.025,319.693L336.594,446.106v47.826l101.371,101.364l33.764-33.764c-3.283-0.659-6.727-0.659-10.107,0.269
		c-0.598-4.126-1-8.325-1-12.622s0.402-8.471,1-12.597c10.596,2.856,21.898-2.417,26.209-12.817
		c4.309-10.375,0.035-22.119-9.473-27.563c5.078-6.787,11.07-12.769,17.846-17.846c5.457,9.496,17.162,13.769,27.563,9.472
		c10.389-4.321,15.662-15.624,12.805-26.22c4.139-0.586,8.313-1.001,12.623-1.001c4.283,0,8.471,0.415,12.609,1.001
		c-0.916,3.393-0.916,6.836-0.27,10.131l26.77-26.781L463.025,319.693z"/>
	<path fill="none" stroke="#373431" stroke-width="12" stroke-linecap="round" stroke-linejoin="round" stroke-miterlimit="10" d="
		M614.34,119.162h-77.342L435.707,220.453l-45.934,27.563l27.551-45.971l82.895-82.883H336.594V376.87h69.242l63.451-63.45l0,0
		c10.377-10.376,27.209-10.376,37.584,0l63.451,63.45h44.018c12.939,0,23.438-10.498,23.438-23.437V142.598
		C637.777,129.66,627.279,119.162,614.34,119.162z"/>
	<path fill="none" stroke="#373431" stroke-width="12" stroke-linecap="round" stroke-linejoin="round" stroke-miterlimit="10" d="
		M520.885,135.274l-85.178,85.179l-45.934,27.563l27.551-45.971l66.795-66.771H336.594v225.483h85.355l47.338-47.338l0,0
		c10.377-10.376,27.209-10.376,37.584,0l47.338,47.338h35.242V135.274H520.885z"/>
</g>
</svg>
