<?xml version="1.0" encoding="utf-8"?>
<!-- Generator: Adobe Illustrator 16.0.0, SVG Export Plug-In . SVG Version: 6.00 Build 0)  -->
<!DOCTYPE svg PUBLIC "-//W3C//DTD SVG 1.0//EN" "http://www.w3.org/TR/2001/REC-SVG-20010904/DTD/svg10.dtd">
<svg version="1.0" id="Layer_1" xmlns="http://www.w3.org/2000/svg" xmlns:xlink="http://www.w3.org/1999/xlink" x="0px" y="0px"
	 width="708.66px" height="708.66px" viewBox="0 0 708.66 708.66" enable-background="new 0 0 708.66 708.66" xml:space="preserve">
<g>
	<path fill="none" stroke="#373431" stroke-width="12" stroke-linecap="round" stroke-linejoin="round" stroke-miterlimit="10" d="
		M212.584,478.341c0,9.741,7.971,17.713,17.713,17.713h177.172c9.74,0,17.725-7.972,17.725-17.713V230.314
		c0-9.747-7.984-17.718-17.725-17.718H230.297c-9.742,0-17.713,7.971-17.713,17.718V478.341z"/>
	<path fill="none" stroke="#373431" stroke-width="12" stroke-linecap="round" stroke-linejoin="round" stroke-miterlimit="10" d="
		M460.617,230.32c0-29.352-23.779-53.149-53.148-53.149h-177.16c-29.357,0-53.148,23.792-53.148,53.149v248.021
		c0,29.346,23.791,53.149,53.148,53.149h177.16c29.369,0,53.148-23.792,53.148-53.149V230.32z"/>
	<path fill="none" stroke="#373431" stroke-width="12" stroke-linecap="round" stroke-linejoin="round" stroke-miterlimit="10" d="
		M452,53.149c-19.58,0-35.426,15.869-35.426,35.431v35.443c0,24.859,9.498,49.743,28.467,68.707l0,0
		c-9.619-9.619-22.9-15.563-37.572-15.563l0,0H230.32l0,0c-14.684,0-27.965,5.945-37.584,15.563h-0.012
		c18.98-18.963,28.479-43.847,28.479-68.707V88.579c0-19.562,15.844-35.431,35.424-35.431H452z"/>
	<path fill="none" stroke="#373431" stroke-width="12" stroke-linecap="round" stroke-linejoin="round" stroke-miterlimit="10" d="
		M442.893,177.165h-10.498c-10.521-16.089-15.82-34.619-15.82-53.143V88.579c0-19.562,15.846-35.431,35.426-35.431
		c19.604,0,35.447,15.869,35.447,35.431v112.908C477.975,186.882,461.594,177.165,442.893,177.165z"/>
	<path fill="none" stroke="#373431" stroke-width="12" stroke-linecap="round" stroke-linejoin="round" stroke-miterlimit="10" d="
		M452,655.512c-19.58,0-35.426-15.869-35.426-35.425v-35.449c0-24.853,9.498-49.73,28.467-68.7l0,0
		c-9.619,9.619-22.9,15.576-37.572,15.576l0,0H230.32l0,0c-14.684,0-27.965-5.957-37.584-15.576h-0.012
		c18.98,18.97,28.479,43.848,28.479,68.7v35.449c0,19.556,15.844,35.425,35.424,35.425H452z"/>
	<path fill="none" stroke="#373431" stroke-width="12" stroke-linecap="round" stroke-linejoin="round" stroke-miterlimit="10" d="
		M442.893,531.514h-10.498c-10.521,16.089-15.82,34.619-15.82,53.124v35.449c0,19.556,15.846,35.425,35.426,35.425
		c19.604,0,35.447-15.869,35.447-35.425V507.174C477.975,521.798,461.594,531.514,442.893,531.514z"/>
	<path fill="none" stroke="#373431" stroke-width="12" stroke-linecap="round" stroke-linejoin="round" stroke-miterlimit="10" d="
		M513.766,265.751c0,9.784,3.955,17.712,8.863,17.712c4.883,0,8.861-7.928,8.861-17.712c0-9.79-3.979-17.718-8.861-17.718
		C517.721,248.032,513.766,255.961,513.766,265.751z"/>
	<path fill="none" stroke="#373431" stroke-width="12" stroke-linecap="round" stroke-linejoin="round" stroke-miterlimit="10" d="
		M487.18,283.463c-4.883,0-8.838-7.928-8.838-17.712c0-9.79,3.955-17.718,8.838-17.718h35.449c-4.908,0-8.863,7.928-8.863,17.718
		c0,9.784,3.955,17.712,8.863,17.712H487.18z"/>
	<path fill="none" stroke="#373431" stroke-width="12" stroke-linecap="round" stroke-linejoin="round" stroke-miterlimit="10" d="
		M513.766,327.756c0,9.784,3.955,17.713,8.863,17.713c4.883,0,8.861-7.929,8.861-17.713c0-9.79-3.979-17.718-8.861-17.718
		C517.721,310.038,513.766,317.966,513.766,327.756z"/>
	<path fill="none" stroke="#373431" stroke-width="12" stroke-linecap="round" stroke-linejoin="round" stroke-miterlimit="10" d="
		M504.904,442.916c0,14.673,5.957,26.563,13.281,26.563c7.348,0,13.305-11.89,13.305-26.563c0-14.685-5.957-26.58-13.305-26.58
		C510.861,416.336,504.904,428.231,504.904,442.916z"/>
	<path fill="none" stroke="#373431" stroke-width="12" stroke-linecap="round" stroke-linejoin="round" stroke-miterlimit="10" d="
		M518.186,469.478c-7.324,0-13.281-11.89-13.281-26.563c0-14.685,5.957-26.58,13.281-26.58h-26.563
		c-7.35,0-13.281,11.896-13.281,26.58c0,14.673,5.932,26.563,13.281,26.563H518.186z"/>
	<path fill="none" stroke="#373431" stroke-width="12" stroke-linecap="round" stroke-linejoin="round" stroke-miterlimit="10" d="
		M487.18,345.469c-4.883,0-8.838-7.929-8.838-17.713c0-9.79,3.955-17.718,8.838-17.718h35.449c-4.908,0-8.863,7.928-8.863,17.718
		c0,9.784,3.955,17.713,8.863,17.713H487.18z"/>
	<path fill="none" stroke="#373431" stroke-width="12" stroke-linecap="round" stroke-linejoin="round" stroke-miterlimit="10" d="
		M445.041,515.926c9.619-9.619,15.576-22.899,15.576-37.585V230.314c0-14.685-5.957-27.966-15.576-37.585h0.025
		c-4.859-4.833-9.059-10.058-12.646-15.563h10.473c29.369,0,53.148,23.803,53.148,53.149v17.718h-8.861
		c-4.883,0-8.838,7.928-8.838,17.718c0,9.784,3.955,17.712,8.838,17.712h8.861v26.575h-8.861c-4.883,0-8.838,7.928-8.838,17.718
		c0,9.784,3.955,17.713,8.838,17.713h8.861v70.867h-4.418c-7.35,0-13.281,11.896-13.281,26.58c0,14.673,5.932,26.563,13.281,26.563
		h4.418v8.862c0,29.346-23.779,53.149-53.148,53.149H432.42c3.588-5.506,7.787-10.73,12.646-15.564H445.041z"/>
	<path fill="none" stroke="#373431" stroke-width="12" stroke-linecap="round" stroke-linejoin="round" stroke-miterlimit="10" d="
		M307.811,398.624h-44.287v-3.791c0-6.097,2.467-11.651,6.482-15.649l31.322-31.347c4.018-3.998,6.482-9.54,6.482-15.655l0,0
		c0-12.22-9.912-22.144-22.131-22.144c-12.244,0-22.156,9.924-22.156,22.144c0-12.22,9.912-22.144,22.156-22.144
		c12.219,0,22.131,9.924,22.131,22.144l0,0c0,6.115-2.465,11.657-6.482,15.655l-31.322,31.347
		c-4.016,3.998-6.482,9.553-6.482,15.649v3.791H307.811z"/>
	<path fill="none" stroke="#373431" stroke-width="12" stroke-linecap="round" stroke-linejoin="round" stroke-miterlimit="10" d="
		M374.266,398.624h-44.311v-3.791c0-6.097,2.477-11.651,6.494-15.649l31.322-31.347c4.027-3.998,6.494-9.54,6.494-15.655l0,0
		c0-12.22-9.938-22.144-22.145-22.144c-12.242,0-22.166,9.924-22.166,22.144c0-12.22,9.924-22.144,22.166-22.144
		c12.207,0,22.145,9.924,22.145,22.144l0,0c0,6.115-2.467,11.657-6.494,15.655l-31.322,31.347
		c-4.018,3.998-6.494,9.553-6.494,15.649v3.791H374.266z"/>
	
		<rect x="248.021" y="248.026" fill="none" stroke="#373431" stroke-width="12" stroke-linecap="round" stroke-linejoin="round" stroke-miterlimit="10" width="79.736" height="26.575"/>
	
		<rect x="354.332" y="248.026" fill="none" stroke="#373431" stroke-width="12" stroke-linecap="round" stroke-linejoin="round" stroke-miterlimit="10" width="35.436" height="26.575"/>
	
		<rect x="354.332" y="434.053" fill="none" stroke="#373431" stroke-width="12" stroke-linecap="round" stroke-linejoin="round" stroke-miterlimit="10" width="35.436" height="26.575"/>
	<path fill="none" stroke="#373431" stroke-width="12" stroke-linecap="round" stroke-linejoin="round" stroke-miterlimit="10" d="
		M274.607,447.342c0,7.342-5.957,13.287-13.281,13.287c-7.348,0-13.305-5.945-13.305-13.287c0-7.337,5.957-13.288,13.305-13.288
		C268.65,434.053,274.607,440.005,274.607,447.342z"/>
	<path fill="none" stroke="#373431" stroke-width="12" stroke-linecap="round" stroke-linejoin="round" stroke-miterlimit="10" d="
		M327.758,447.342c0,7.342-5.957,13.287-13.295,13.287c-7.336,0-13.293-5.945-13.293-13.287c0-7.337,5.957-13.288,13.293-13.288
		C321.801,434.053,327.758,440.005,327.758,447.342z"/>
</g>
</svg>
