<?xml version="1.0" encoding="utf-8"?>
<!-- Generator: Adobe Illustrator 16.0.0, SVG Export Plug-In . SVG Version: 6.00 Build 0)  -->
<!DOCTYPE svg PUBLIC "-//W3C//DTD SVG 1.0//EN" "http://www.w3.org/TR/2001/REC-SVG-20010904/DTD/svg10.dtd">
<svg version="1.0" id="Layer_1" xmlns="http://www.w3.org/2000/svg" xmlns:xlink="http://www.w3.org/1999/xlink" x="0px" y="0px"
	 width="708.66px" height="708.66px" viewBox="0 0 708.66 708.66" enable-background="new 0 0 708.66 708.66" xml:space="preserve">
<g>
	<path fill="none" stroke="#373431" stroke-width="12" stroke-linecap="round" stroke-linejoin="round" stroke-miterlimit="10" d="
		M228.83,337.961c0-13.501-10.984-24.463-24.486-24.463h-24.463h24.463C217.845,313.498,228.83,324.46,228.83,337.961z"/>
	<path fill="none" stroke="#373431" stroke-width="12" stroke-linecap="round" stroke-linejoin="round" stroke-miterlimit="10" d="
		M216.599,386.923c0-13.513,10.938-24.475,24.463-24.475h0.012c0-13.501,10.963-24.487,24.475-24.487
		c-13.512,0-24.475,10.986-24.475,24.487h-0.012C227.537,362.448,216.599,373.41,216.599,386.923z"/>
	<path fill="none" stroke="#373431" stroke-width="12" stroke-linecap="round" stroke-linejoin="round" stroke-miterlimit="10" d="
		M277.756,362.448c0-13.525,10.975-24.487,24.463-24.487C288.73,337.961,277.756,348.923,277.756,362.448z"/>
	<path fill="none" stroke="#373431" stroke-width="12" stroke-linecap="round" stroke-linejoin="round" stroke-miterlimit="10" d="
		M287.888,448.104c0-8.875-3.369-17.713-10.156-24.451c6.762,0,12.256-5.505,12.256-12.256l0,0
		c20.238,0,36.693-16.454,36.693-36.706v-12.243c0-13.501-10.961-24.487-24.475-24.487l0,0c0-13.501-10.938-24.463-24.475-24.463
		h0.023c0-13.513-10.961-24.463-24.475-24.463H204.32c-13.49,0-24.451,10.95-24.451,24.463c-13.514,0-24.475,10.962-24.475,24.463
		l0,0c-13.502,0-24.475,10.986-24.475,24.487l0,0c0,13.513,10.973,24.475,24.475,24.475h61.254h-0.072
		c0,13.525,10.936,24.475,24.461,24.475h0.025c2.783,0,5.42-0.476,7.91-1.33c10.4,11.486,18.371,24.401,24.023,38.037H287.888z"/>
	<path fill="none" stroke="#373431" stroke-width="12" stroke-linecap="round" stroke-linejoin="round" stroke-miterlimit="10" d="
		M228.855,253.88c-69.311,0-125.512,56.2-125.512,125.536v50.194l-45.275,45.288c-3.039,3.052-4.92,7.238-4.92,11.816
		c0,9.289,7.471,16.784,16.748,16.784h33.447v101.794c0,13.879,11.254,25.098,25.121,25.098h50.184v25.121h112.938v-74.376
		c0-27.417,10.463-54.847,31.373-75.757c19.385-19.396,31.359-46.179,31.359-75.769v-50.194
		C354.318,310.08,298.166,253.88,228.855,253.88z"/>
	<path fill="none" stroke="#373431" stroke-width="12" stroke-linecap="round" stroke-linejoin="round" stroke-miterlimit="10" d="
		M178.648,630.391c41.564,0,75.293-33.729,75.293-75.269C253.941,596.662,220.213,630.391,178.648,630.391z"/>
	<path fill="none" stroke="#373431" stroke-width="12" stroke-linecap="round" stroke-linejoin="round" stroke-miterlimit="10" d="
		M510.652,264.927c0-17.126-6.531-34.265-19.604-47.326c-12.123-12.109-19.594-28.833-19.594-47.326l0,0l0,0
		c0-36.975,29.957-66.931,66.92-66.931h0.012c36.951,0,66.918,29.956,66.918,66.931l0,0l0,0c0,18.493-7.482,35.217-19.604,47.326
		c-13.063,13.062-19.605,30.2-19.605,47.326H510.652z"/>
	
		<polygon fill="none" stroke="#373431" stroke-width="12" stroke-linecap="round" stroke-linejoin="round" stroke-miterlimit="10" points="
		510.652,264.927 510.652,318.479 520.211,332.81 556.539,332.81 566.095,318.479 566.095,264.927 	"/>
	<path fill="none" stroke="#373431" stroke-width="12" stroke-linecap="round" stroke-linejoin="round" stroke-miterlimit="10" d="
		M510.652,305.075l55.443,13.403L510.652,305.075z"/>
	<path fill="none" stroke="#373431" stroke-width="12" stroke-linecap="round" stroke-linejoin="round" stroke-miterlimit="10" d="
		M510.652,279.978l55.443,13.403L510.652,279.978z"/>
	<path fill="none" stroke="#373431" stroke-width="12" stroke-linecap="round" stroke-linejoin="round" stroke-miterlimit="10" d="
		M547.931,226.683c0-5.273-4.271-9.57-9.557-9.57c-5.287,0-9.547,4.297-9.559,9.57l0,0v38.244h19.115V226.683L547.931,226.683z"/>
	<path fill="none" stroke="#373431" stroke-width="12" stroke-linecap="round" stroke-linejoin="round" stroke-miterlimit="10" d="
		M530.72,221.019l-21.033-50.744c10.561,0,19.117-8.558,19.129-19.128c5.285,5.285,13.83,5.285,19.115,0.012
		c0,10.559,8.559,19.116,19.129,19.116l-21.02,50.744l21.02-50.744c-10.57,0-19.129-8.558-19.129-19.116
		c-5.285,5.273-13.83,5.273-19.115-0.012c-0.012,10.57-8.568,19.128-19.129,19.128L530.72,221.019z"/>
	<path fill="none" stroke="#373431" stroke-width="12" stroke-linecap="round" stroke-linejoin="round" stroke-miterlimit="10" d="
		M538.375,53.148v25.098V53.148z"/>
	<path fill="none" stroke="#373431" stroke-width="12" stroke-linecap="round" stroke-linejoin="round" stroke-miterlimit="10" d="
		M421.248,170.262h25.098H421.248z"/>
	<path fill="none" stroke="#373431" stroke-width="12" stroke-linecap="round" stroke-linejoin="round" stroke-miterlimit="10" d="
		M655.511,170.262h-25.109H655.511z"/>
	<path fill="none" stroke="#373431" stroke-width="12" stroke-linecap="round" stroke-linejoin="round" stroke-miterlimit="10" d="
		M621.185,87.45l-17.748,17.749L621.185,87.45z"/>
	<path fill="none" stroke="#373431" stroke-width="12" stroke-linecap="round" stroke-linejoin="round" stroke-miterlimit="10" d="
		M455.562,87.45l17.748,17.749L455.562,87.45z"/>
	<path fill="none" stroke="#373431" stroke-width="12" stroke-linecap="round" stroke-linejoin="round" stroke-miterlimit="10" d="
		M455.562,253.074l17.748-17.749L455.562,253.074z"/>
	<path fill="none" stroke="#373431" stroke-width="12" stroke-linecap="round" stroke-linejoin="round" stroke-miterlimit="10" d="
		M621.185,253.074l-17.748-17.749L621.185,253.074z"/>
	<path fill="none" stroke="#373431" stroke-width="12" stroke-linecap="round" stroke-linejoin="round" stroke-miterlimit="10" d="
		M493.562,62.084l19.201,46.362L493.562,62.084z"/>
	<path fill="none" stroke="#373431" stroke-width="12" stroke-linecap="round" stroke-linejoin="round" stroke-miterlimit="10" d="
		M646.59,125.45l-46.375,19.202L646.59,125.45z"/>
	<path fill="none" stroke="#373431" stroke-width="12" stroke-linecap="round" stroke-linejoin="round" stroke-miterlimit="10" d="
		M430.172,215.086l46.375-19.214L430.172,215.086z"/>
	<path fill="none" stroke="#373431" stroke-width="12" stroke-linecap="round" stroke-linejoin="round" stroke-miterlimit="10" d="
		M646.59,215.086l-46.387-19.214L646.59,215.086z"/>
	<path fill="none" stroke="#373431" stroke-width="12" stroke-linecap="round" stroke-linejoin="round" stroke-miterlimit="10" d="
		M430.172,125.463l46.375,19.189L430.172,125.463z"/>
	<path fill="none" stroke="#373431" stroke-width="12" stroke-linecap="round" stroke-linejoin="round" stroke-miterlimit="10" d="
		M583.185,62.072l-19.189,46.361L583.185,62.072z"/>
	<path fill="none" stroke="#373431" stroke-width="12" stroke-linecap="round" stroke-linejoin="round" stroke-miterlimit="10" d="
		M538.349,332.81v197.203c0,41.589-33.703,75.292-75.305,75.292c-41.576,0-75.279-33.703-75.279-75.292l0.023-347.189
		c0-43.896-35.582-79.479-79.467-79.479c-43.908,0-79.492,35.583-79.492,79.479v71.081v-71.081
		c0-43.896,35.584-79.479,79.492-79.479c43.885,0,79.467,35.583,79.467,79.479l-0.023,347.189c0,41.589,33.703,75.292,75.279,75.292
		c41.602,0,75.305-33.703,75.305-75.292V332.81z"/>
</g>
</svg>
